<svg width="3345" height="2629" viewBox="0 0 3345 2629" fill="none" xmlns="http://www.w3.org/2000/svg">
<g filter="url(#filter0_f_474_248)">
<circle cx="1235.53" cy="1581.84" r="85.5" fill="#272727"/>
</g>
<circle cx="2137.53" cy="1104.84" r="130.5" fill="#272727"/>
<path d="M1865.2 952.38C1862.97 1019.31 1810.96 1075.37 1802.06 1141.62C1790.89 1224.65 1847.9 1299 1889.49 1371.7C1931.08 1444.39 1954.47 1547.83 1891.52 1603.04C1843.4 1645.15 1767.31 1634.89 1712.09 1602.63C1656.88 1570.38 1614.17 1520.59 1562.77 1482.74C1515.15 1447.74 1459.95 1423.14 1402.15 1411.24C1318.36 1393.97 1230.2 1402.88 1147.86 1379.62C1065.52 1356.36 985.668 1282.74 999.827 1198.36C1013.42 1117.58 1101.44 1074.44 1179.96 1051.23C1258.49 1028.03 1348.04 1004.74 1387.8 933.123C1409.63 893.61 1412.57 844.252 1441.01 809.22C1541.68 685.201 1870.87 781.857 1865.2 952.38Z" stroke="url(#paint0_linear_474_248)" stroke-width="2" stroke-miterlimit="10" stroke-linecap="round" stroke-linejoin="round"/>
<path d="M1142.15 1383.67C1124.77 1378.61 1107.46 1372.38 1090.79 1364.41C1057.28 1348.41 1026.68 1325.46 1005 1297.49C982.254 1268.12 969.265 1232.99 973.744 1195.44C981.234 1133.27 1031.1 1089.39 1089.88 1060.74C1112.16 1049.89 1135.6 1041.26 1158.61 1034.51C1194.19 1024.03 1232.01 1014.39 1266.94 1002.15C1314.14 985.458 1356.99 963.614 1383.11 921.744C1402.06 891.186 1408.98 853.495 1425.06 821.45C1430.16 811.336 1436.03 801.909 1443.23 793.475C1471.93 760.185 1515.16 744.904 1564.91 740.454C1638.04 733.821 1722.94 750.192 1789.29 786.706C1851.91 821.102 1898.39 872.861 1900.84 935.702C1903.43 1003.12 1856.11 1061.88 1848.1 1130.76C1847.05 1140.05 1846.63 1149.34 1846.88 1158.5C1848.98 1234 1893.49 1302.61 1924.22 1369.12C1948.79 1422.34 1962.56 1489.97 1945.16 1545.66C1938.13 1568.33 1925.81 1589.03 1906.53 1605.94C1876.4 1632.39 1837.09 1641.63 1799.06 1639.57C1772.93 1638.31 1747.41 1631.79 1724.54 1621.36C1681.44 1601.6 1643.49 1570.06 1603.25 1539.35C1591.02 1529.93 1578.51 1520.68 1565.74 1511.84C1536.32 1491.6 1504.66 1473.79 1472.16 1459.1C1448.39 1448.43 1424.24 1439.48 1399.77 1432.61C1370.05 1424.25 1339.91 1418.88 1309.64 1414.36C1254.49 1405.96 1198.01 1399.83 1142.15 1383.67Z" stroke="url(#paint1_linear_474_248)" stroke-width="1.9615" stroke-miterlimit="10" stroke-linecap="round" stroke-linejoin="round"/>
<path d="M1136.44 1387.72C1117.76 1382.16 1098.9 1376.07 1080.77 1368.18C1044.29 1352.27 1010.57 1329.36 985.991 1300.29C960.312 1269.97 944.518 1232.81 947.716 1192.61C952.894 1126.87 1003.57 1077.87 1064.83 1046.53C1088.12 1034.59 1112.97 1025.15 1137.37 1017.97C1175.15 1006.73 1215.33 997.487 1252.63 986.514C1302.72 971.554 1349.23 953.003 1378.63 910.497C1399.91 879.604 1407.92 839.896 1425.88 806.762C1431.59 796.173 1437.99 786.568 1445.81 777.901C1477.25 743.275 1522.47 730.12 1575.08 726.279C1652.51 720.558 1741.36 734.4 1812.3 770.15C1878.61 803.544 1929.81 854.97 1936.78 919.102C1944.08 987.069 1901.47 1048.52 1894.44 1119.98C1893.51 1129.7 1893.1 1139.23 1893.34 1148.78C1895.17 1227.32 1934.92 1298.56 1959.21 1366.78C1978.81 1421.86 1985.97 1489.78 1964.4 1546.75C1955.69 1569.77 1941.99 1591.13 1921.83 1608.93C1890.09 1636.94 1850 1648.51 1811.85 1650.17C1785.71 1651.3 1760.53 1647.98 1737.22 1640.06C1693.45 1625.22 1652.39 1597.24 1609.1 1567.78C1595.88 1558.82 1582.55 1549.67 1568.89 1540.82C1537.57 1520.55 1504.28 1501.67 1470.99 1485.18C1446.65 1473.07 1422.21 1462.54 1397.68 1453.81C1367.92 1443.21 1337.98 1435.34 1307.7 1428.43C1252.38 1415.6 1194.99 1404.84 1136.44 1387.72Z" stroke="url(#paint2_linear_474_248)" stroke-width="1.9231" stroke-miterlimit="10" stroke-linecap="round" stroke-linejoin="round"/>
<path d="M1130.68 1391.67C1110.6 1385.66 1090.29 1379.66 1070.69 1371.86C1031.21 1356.17 994.403 1333.16 966.834 1303.05C938.315 1271.73 919.715 1232.54 921.537 1189.74C924.458 1120.53 975.803 1066.36 1039.63 1032.28C1064.02 1019.2 1090.1 1009.05 1115.93 1001.31C1155.86 989.443 1198.51 980.541 1238.12 970.746C1291.2 957.705 1341.17 942.313 1373.8 899.077C1397.4 867.849 1406.56 826.217 1426.26 791.954C1432.63 780.985 1439.54 770.958 1447.85 762.262C1481.95 726.355 1529.24 715.27 1584.81 711.984C1666.45 707.23 1759.28 718.393 1834.87 753.474C1904.93 785.96 1960.78 836.96 1972.22 902.288C1984.13 970.613 1946.36 1034.79 1940.18 1109.04C1939.32 1119.09 1939.04 1129.06 1939.29 1138.85C1940.92 1220.53 1975.8 1294.45 1993.74 1364.07C2008.34 1421.16 2008.97 1489.33 1983.09 1547.53C1972.74 1570.99 1957.71 1592.87 1936.58 1611.6C1903.17 1641.08 1862.16 1655.2 1824.17 1660.41C1797.94 1663.98 1773.29 1663.75 1749.5 1658.5C1705.1 1648.67 1660.94 1624.24 1614.6 1596.04C1600.48 1587.47 1586.28 1578.57 1571.69 1569.64C1538.41 1549.24 1503.56 1529.38 1469.33 1511.04C1444.37 1497.65 1419.68 1485.38 1395.09 1474.8C1365.19 1462.01 1335.44 1451.64 1305.26 1442.28C1250.28 1425.24 1192.03 1409.95 1130.68 1391.67Z" stroke="url(#paint3_linear_474_248)" stroke-width="1.8846" stroke-miterlimit="10" stroke-linecap="round" stroke-linejoin="round"/>
<path d="M1125.06 1395.67C1103.69 1389.15 1081.82 1383.29 1060.77 1375.57C1018.31 1359.97 978.332 1336.9 947.922 1305.79C916.467 1273.53 895.211 1232.36 895.697 1186.81C896.36 1114.12 948.426 1054.88 1014.71 1017.87C1040.05 1003.62 1067.45 992.701 1094.73 984.623C1136.91 972.089 1182.02 963.526 1223.91 955.06C1279.97 943.693 1333.41 931.703 1369.32 887.831C1395.24 856.269 1405.65 812.66 1427.09 777.268C1433.97 765.877 1441.59 755.563 1450.37 746.596C1487.27 709.446 1536.5 700.393 1594.99 697.809C1680.92 693.968 1777.76 702.696 1857.88 736.919C1931.64 768.402 1992.15 818.977 2008.16 885.689C2024.63 954.52 1991.81 1021.38 1986.52 1098.25C1985.82 1108.59 1985.61 1118.9 1985.74 1129.14C1987.11 1213.85 2017.15 1290.7 2028.73 1361.73C2038.33 1420.82 2032.38 1489.15 2002.38 1548.71C1990.35 1572.51 1973.99 1595.16 1951.94 1614.68C1916.92 1645.72 1875.08 1662.33 1837.06 1671.2C1810.79 1677.31 1786.61 1680.08 1762.3 1677.39C1717.21 1672.49 1669.95 1651.61 1620.57 1624.67C1605.54 1616.49 1590.42 1607.74 1574.96 1598.81C1539.77 1578.38 1503.38 1557.39 1468.27 1537.3C1442.64 1522.54 1417.76 1508.62 1393.1 1496.19C1363.17 1481.16 1333.61 1468.29 1303.38 1456.45C1248.17 1434.88 1188.97 1415.11 1125.06 1395.67Z" stroke="url(#paint4_linear_474_248)" stroke-width="1.8462" stroke-miterlimit="10" stroke-linecap="round" stroke-linejoin="round"/>
<path d="M1119.35 1399.72C1096.59 1392.74 1073.26 1386.97 1050.7 1379.25C1005.23 1363.88 962.168 1340.7 928.863 1308.5C894.566 1275.23 870.56 1232.13 869.615 1183.88C868.02 1107.72 920.752 1043.32 989.601 1003.57C1015.95 988.229 1044.67 976.552 1073.44 967.995C1117.78 954.843 1165.29 946.527 1209.45 939.387C1268.4 929.75 1325.41 921.108 1364.69 876.545C1392.78 844.609 1404.49 799.116 1427.71 762.447C1435.2 750.58 1443.39 739.94 1452.66 730.943C1492.36 692.552 1543.51 685.53 1604.87 683.555C1695.1 680.627 1795.89 686.824 1880.6 720.284C1958.01 750.913 2023.07 800.873 2043.75 868.916C2064.73 938.159 2036.81 1007.85 2032.51 1087.3C2031.93 1098.06 2031.79 1108.71 2031.89 1119.34C2032.92 1207.15 2058.1 1286.92 2063.42 1359.3C2067.98 1420.55 2055.64 1488.92 2021.23 1549.78C2007.56 1574.02 1989.88 1597.18 1966.76 1617.7C1930.16 1650.14 1887.46 1669.39 1849.36 1681.83C1822.99 1690.39 1799.29 1696.15 1774.55 1696.22C1728.94 1696.28 1678.42 1678.91 1626.05 1653.32C1610.11 1645.54 1593.99 1637 1577.74 1628.02C1540.55 1607.61 1502.58 1585.4 1466.58 1563.55C1440.34 1547.51 1415.2 1531.85 1390.39 1517.63C1360.42 1500.35 1331.05 1484.99 1300.82 1470.75C1246.07 1444.52 1185.92 1420.27 1119.35 1399.72Z" stroke="url(#paint5_linear_474_248)" stroke-width="1.8077" stroke-miterlimit="10" stroke-linecap="round" stroke-linejoin="round"/>
<path d="M1113.59 1403.68C1089.52 1396.19 1064.59 1390.47 1040.62 1382.93C992.234 1367.73 945.946 1344.41 909.799 1311.21C872.568 1276.99 845.999 1231.85 843.53 1180.96C839.771 1101.27 893.075 1031.76 964.492 989.269C991.948 972.788 1021.93 960.255 1052.14 951.367C1098.64 937.598 1148.7 929.567 1195.09 923.66C1256.98 915.847 1317.5 910.458 1360.06 865.26C1390.47 832.989 1403.34 785.573 1428.39 747.72C1436.48 735.378 1445.2 724.56 1455.08 715.331C1497.5 675.753 1550.52 670.667 1614.99 669.286C1709.47 667.177 1814.16 670.993 1903.55 703.635C1984.66 733.262 2054.29 782.85 2079.63 852.222C2105.08 921.783 2082.21 994.342 2078.79 1076.42C2078.38 1087.47 2078.21 1098.51 2078.29 1109.53C2079.11 1200.47 2099.11 1283.24 2098.39 1356.72C2097.76 1420.08 2079.03 1488.49 2040.46 1550.62C2025.15 1575.3 2006.04 1599.04 1982.05 1620.44C1943.84 1654.44 1900.15 1676.14 1862.23 1692.13C1835.82 1703.23 1812.58 1711.99 1787.22 1714.69C1741.02 1719.61 1687.31 1705.85 1631.94 1681.61C1615.1 1674.23 1598.06 1665.83 1580.93 1656.86C1541.84 1636.42 1502.24 1613.13 1465.45 1589.48C1438.54 1572.07 1413.11 1554.81 1388.33 1538.68C1358.23 1519.22 1329.06 1501.35 1298.93 1484.67C1243.91 1454.06 1182.9 1425.28 1113.59 1403.68Z" stroke="url(#paint6_linear_474_248)" stroke-width="1.7692" stroke-miterlimit="10" stroke-linecap="round" stroke-linejoin="round"/>
<path d="M1107.88 1407.73C1082.37 1399.7 1056.03 1394.16 1030.51 1386.76C979.054 1371.7 929.74 1348.36 890.643 1313.97C850.571 1278.75 821.197 1231.58 817.446 1178.04C811.524 1094.81 865.494 1020.14 939.329 974.875C967.793 957.309 999.1 944.013 1030.79 934.646C1079.54 920.205 1131.92 912.475 1180.73 907.935C1245.59 901.797 1309.59 899.81 1355.53 853.922C1388.2 821.222 1402.37 771.922 1429.06 732.995C1437.82 720.272 1447.05 709.033 1457.36 699.68C1502.53 658.766 1557.53 655.806 1624.87 655.033C1723.65 653.837 1832.28 655.123 1926.26 687.002C2011.03 715.775 2085.11 764.803 2115.27 835.545C2145.14 905.572 2127.36 980.851 2124.83 1065.56C2124.49 1076.95 2124.39 1088.32 2124.54 1099.68C2125.1 1193.67 2139.91 1279.43 2133.18 1354.24C2127.31 1419.87 2102.38 1488.21 2059.45 1551.73C2042.56 1576.7 2022.07 1601.11 1997.11 1623.44C1957.28 1659.01 1912.78 1683.19 1874.77 1702.75C1848.41 1716.33 1825.5 1728.05 1799.72 1733.5C1752.93 1743.29 1696.07 1733.23 1637.6 1710.15C1619.86 1703.17 1601.9 1694.93 1583.95 1686.05C1542.96 1665.58 1501.73 1641.22 1464.09 1615.67C1436.57 1596.97 1410.94 1578.07 1386.05 1560C1355.91 1538.29 1326.93 1517.93 1296.8 1498.85C1241.8 1463.71 1179.94 1430.39 1107.88 1407.73Z" stroke="url(#paint7_linear_474_248)" stroke-width="1.7308" stroke-miterlimit="10" stroke-linecap="round" stroke-linejoin="round"/>
<path d="M1102.11 1411.69C1075.3 1403.15 1047.41 1397.75 1020.43 1390.44C966.063 1375.55 913.575 1352.16 871.583 1316.67C828.669 1280.46 796.544 1231.35 791.363 1175.11C783.332 1088.45 837.873 1008.68 914.317 960.518C943.883 941.813 976.361 927.714 1009.49 918.017C1060.41 902.958 1115.34 895.514 1166.37 892.207C1234.12 887.799 1301.62 889.065 1350.84 842.54C1385.84 809.506 1401.16 758.283 1429.69 718.173C1439.04 704.974 1448.89 693.502 1459.74 683.972C1507.76 641.91 1564.64 640.887 1634.84 640.723C1737.92 640.439 1850.41 639.25 1949.07 670.311C2037.45 698.136 2116.03 746.698 2150.95 818.716C2185.09 889.17 2172.4 967.168 2170.91 1054.54C2170.64 1066.27 2170.66 1078.08 2170.73 1089.73C2171.04 1186.76 2180.47 1275.63 2167.95 1351.52C2156.7 1419.38 2125.63 1487.74 2078.48 1552.44C2059.95 1577.85 2038.08 1602.92 2012.2 1626.04C1970.8 1663.02 1925.33 1689.9 1887.34 1712.97C1860.88 1729 1838.59 1743.76 1812.19 1751.83C1764.91 1766.43 1704.85 1759.98 1643.29 1738.3C1624.56 1731.77 1605.77 1723.63 1586.94 1714.75C1544.04 1694.25 1501.19 1668.82 1462.67 1641.51C1434.48 1621.44 1408.66 1600.89 1383.7 1580.97C1353.52 1557.02 1324.58 1534.12 1294.46 1512.65C1239.7 1473.34 1176.82 1435.45 1102.11 1411.69Z" stroke="url(#paint8_linear_474_248)" stroke-width="1.6923" stroke-miterlimit="10" stroke-linecap="round" stroke-linejoin="round"/>
<path d="M1096.4 1415.74C1068.2 1406.74 1038.85 1401.43 1010.36 1394.11C952.923 1379.36 897.355 1355.86 852.427 1319.43C806.578 1282.27 771.891 1231.12 765.186 1172.24C754.896 1082.11 810.104 997.169 889.115 946.27C919.69 926.48 953.488 911.619 988.05 901.348C1041.21 885.617 1098.46 878.473 1151.86 876.439C1222.59 873.706 1293.57 878.375 1346.06 831.214C1383.24 797.806 1399.95 744.645 1430.22 703.405C1440.18 689.731 1450.65 678.027 1461.93 668.373C1512.75 625.07 1571.56 626.077 1644.72 626.468C1752 627.152 1868.59 623.472 1971.79 653.675C2063.91 680.592 2146.86 728.648 2186.59 802.036C2225 872.917 2217.55 953.674 2216.9 1043.59C2216.84 1055.69 2216.79 1067.79 2216.83 1079.84C2216.94 1180 2220.94 1271.88 2202.59 1349C2185.91 1418.99 2148.83 1487.42 2097.27 1553.41C2077.11 1579.26 2053.91 1604.85 2027.05 1628.91C1984.04 1667.45 1937.75 1696.82 1899.77 1723.4C1873.27 1741.97 1851.4 1759.62 1824.58 1770.45C1776.66 1789.82 1713.46 1787.08 1648.85 1766.66C1629.15 1760.42 1609.41 1752.58 1589.8 1743.66C1545 1723.13 1500.52 1696.62 1461.2 1667.51C1432.4 1646.16 1406.33 1623.86 1381.31 1602.09C1351 1575.95 1322.35 1550.5 1292.22 1526.64C1237.59 1482.98 1173.86 1440.56 1096.4 1415.74Z" stroke="url(#paint9_linear_474_248)" stroke-width="1.6538" stroke-miterlimit="10" stroke-linecap="round" stroke-linejoin="round"/>
<path d="M1090.69 1419.79C1061.19 1410.29 1030.29 1405.12 1000.34 1397.89C939.985 1383.31 881.337 1359.7 833.419 1322.23C784.729 1284.07 747.291 1230.99 739.155 1169.42C726.757 1075.85 782.481 985.703 864.006 931.97C895.684 911.04 930.708 895.472 966.754 884.721C1022.08 868.373 1081.78 861.57 1137.55 860.808C1211.22 859.899 1285.71 867.821 1341.58 819.97C1381.08 786.227 1399.04 731.088 1431.04 688.72C1441.66 674.665 1452.65 662.54 1464.45 652.707C1518.08 608.162 1578.76 611.107 1654.84 612.2C1766.42 613.797 1886.86 607.641 1994.74 637.027C2090.52 663.09 2177.83 710.641 2222.42 785.25C2265.1 856.557 2262.89 940.073 2263.12 1032.62C2263.14 1045.06 2263.15 1057.5 2263.17 1069.94C2263.02 1173.14 2261.59 1268.03 2237.51 1346.32C2215.3 1418.49 2172.32 1486.94 2116.5 1554.26C2094.7 1580.55 2070.07 1606.71 2042.34 1631.65C1997.66 1671.66 1950.5 1703.67 1912.59 1733.85C1886.05 1754.96 1864.6 1775.52 1837.3 1789.01C1788.84 1813.1 1722.4 1814.11 1654.8 1795.04C1634.2 1789.2 1613.59 1781.61 1593.14 1772.54C1546.38 1751.88 1500.33 1724.39 1460.07 1693.44C1430.61 1670.71 1404.24 1646.83 1379.16 1623.2C1348.81 1594.82 1320.26 1566.92 1290.23 1540.62C1235.49 1492.63 1170.84 1445.57 1090.69 1419.79Z" stroke="url(#paint10_linear_474_248)" stroke-width="1.6154" stroke-miterlimit="10" stroke-linecap="round" stroke-linejoin="round"/>
<path d="M1085.03 1423.69C1054.17 1413.59 1021.77 1408.65 990.357 1401.51C926.995 1387.17 865.211 1363.36 814.453 1324.88C762.921 1285.72 722.827 1230.65 713.261 1166.38C698.794 1069.23 755.05 974.129 839.088 917.562C871.719 895.452 908.158 879.067 945.553 868.04C1003.13 851.02 1065.24 844.462 1123.19 845.082C1199.74 845.903 1277.75 857.078 1336.95 808.686C1378.72 774.514 1397.89 717.546 1431.57 673.954C1442.89 659.369 1454.31 647.121 1466.64 637.111C1523.07 591.324 1585.68 596.3 1664.68 598.096C1780.56 600.606 1904.9 592.069 2017.42 620.542C2116.85 645.751 2208.43 692.851 2258.11 768.666C2305.12 840.495 2308 926.731 2309.22 1021.85C2309.3 1034.63 2309.44 1047.5 2309.38 1060.24C2309.03 1166.57 2302.02 1264.43 2272.25 1343.99C2244.46 1418.26 2195.54 1486.87 2135.4 1555.42C2112.07 1582.09 2086.06 1608.93 2057.22 1634.76C2010.92 1676.33 1962.93 1710.83 1924.95 1744.58C1898.36 1768.22 1877.42 1791.63 1849.61 1807.94C1800.51 1836.79 1730.92 1841.51 1660.33 1823.79C1638.83 1818.35 1617.3 1810.9 1595.97 1801.84C1547.31 1781.15 1499.63 1752.59 1458.58 1719.82C1428.5 1695.82 1401.89 1670.19 1376.8 1644.81C1346.42 1614.19 1318.05 1583.79 1288.03 1555.1C1233.29 1502.32 1167.88 1450.68 1085.03 1423.69Z" stroke="url(#paint11_linear_474_248)" stroke-width="1.5769" stroke-miterlimit="10" stroke-linecap="round" stroke-linejoin="round"/>
<path d="M1079.32 1427.74C1047.16 1417.13 1013.21 1412.34 980.338 1405.28C914.004 1391.02 849.101 1367.25 795.446 1327.68C740.979 1287.58 698.323 1230.46 687.233 1163.55C670.602 1062.87 727.429 962.66 814.035 903.353C847.675 880.158 885.434 863.011 924.313 851.504C984.048 833.867 1048.56 827.555 1108.88 829.448C1188.42 831.944 1269.89 846.521 1332.47 797.438C1376.46 762.986 1396.98 703.986 1432.4 659.266C1444.33 644.205 1456.36 631.724 1469.21 621.536C1528.41 574.657 1592.99 581.515 1674.95 583.865C1795.13 587.288 1923.38 576.369 2040.52 603.931C2143.62 628.286 2239.56 674.88 2294.15 752.011C2345.33 824.321 2353.54 913.261 2355.65 1011.01C2355.96 1024.16 2356.11 1037.28 2356.02 1050.41C2355.41 1159.79 2342.77 1260.52 2307.47 1341.39C2274.09 1417.75 2219.38 1486.56 2154.92 1556.34C2129.9 1583.36 2102.52 1610.86 2072.8 1637.58C2024.93 1680.56 1975.98 1717.75 1938.11 1754.96C1911.43 1781.05 1890.96 1807.46 1862.68 1826.43C1812.87 1859.96 1740.25 1868.56 1666.56 1852C1644.16 1846.96 1621.71 1839.67 1599.51 1830.61C1548.84 1809.94 1499.73 1780.2 1457.74 1745.59C1426.99 1720.21 1400.18 1692.93 1375.03 1665.7C1344.46 1632.8 1316.43 1599.94 1286.41 1568.85C1231.18 1511.96 1164.91 1455.54 1079.32 1427.74Z" stroke="url(#paint12_linear_474_248)" stroke-width="1.5385" stroke-miterlimit="10" stroke-linecap="round" stroke-linejoin="round"/>
<path d="M1073.55 1431.7C1040 1420.63 1004.59 1415.93 970.211 1408.87C900.866 1394.83 832.828 1370.86 776.332 1330.29C719.024 1289.18 673.617 1230.14 661.096 1160.54C642.356 1056.42 699.795 950.95 788.82 888.862C823.562 864.528 862.494 846.578 902.911 834.687C964.898 816.378 1031.87 810.406 1094.47 813.626C1176.89 817.852 1261.88 835.682 1327.79 786.058C1374.05 751.177 1395.77 690.348 1433.02 644.444C1445.61 629.002 1458.16 616.1 1471.44 605.789C1533.45 557.667 1599.94 566.557 1684.77 569.515C1809.2 573.757 1941.45 560.403 2063.18 587.201C2169.93 610.702 2270.19 656.939 2329.68 735.142C2385.09 808.028 2398.49 899.633 2401.59 999.957C2401.96 1013.45 2402.23 1027 2402.12 1040.52C2401.16 1152.99 2383.04 1256.64 2342.11 1338.87C2303.15 1417.32 2242.59 1486.24 2173.72 1557.31C2147.07 1584.77 2118.35 1612.79 2087.66 1640.44C2038.18 1684.98 1988.46 1724.76 1950.45 1765.44C1923.73 1794.07 1903.62 1823.28 1874.97 1845.11C1824.62 1883.35 1748.76 1895.71 1672.08 1880.51C1648.68 1875.91 1625.32 1868.78 1602.33 1859.67C1549.75 1838.96 1499.02 1808.15 1456.14 1771.78C1424.72 1745.03 1397.72 1716.11 1372.5 1687.03C1341.9 1651.88 1313.97 1616.58 1283.99 1582.95C1229.08 1521.6 1161.85 1460.7 1073.55 1431.7Z" stroke="url(#paint13_linear_474_248)" stroke-width="1.5" stroke-miterlimit="10" stroke-linecap="round" stroke-linejoin="round"/>
<path d="M1067.84 1435.75C1032.94 1424.08 996.125 1419.56 960.096 1412.7C887.779 1398.74 816.755 1374.61 757.23 1333.15C697.175 1290.99 649.017 1230.01 634.972 1157.76C614.068 1050.12 672.079 939.538 763.672 874.711C799.422 849.292 839.674 830.58 881.574 818.209C945.666 799.188 1015.1 793.557 1080.07 798.049C1165.46 803.95 1253.93 825.182 1323.07 774.828C1371.59 739.518 1394.67 676.9 1433.6 629.773C1446.8 613.856 1459.96 600.721 1473.78 590.232C1538.64 540.963 1606.92 551.844 1694.71 555.357C1823.43 560.511 1959.59 544.776 2085.95 570.661C2196.36 593.309 2300.88 639.095 2365.37 718.559C2425.02 792.02 2443.64 886.142 2447.68 989.19C2448.22 1002.97 2448.47 1016.9 2448.33 1030.82C2447.17 1146.42 2423.35 1252.85 2376.85 1336.54C2332.16 1417.04 2265.9 1486.11 2192.71 1558.42C2164.43 1586.32 2134.29 1614.91 2102.72 1643.44C2051.57 1689.45 2000.98 1731.86 1962.99 1776.05C1936.22 1807.23 1916.63 1839.29 1887.32 1863.88C1836.28 1906.81 1757.33 1922.96 1677.59 1909.01C1653.29 1904.81 1629.01 1897.83 1605.14 1888.72C1550.67 1867.99 1498.3 1836.1 1454.58 1797.84C1422.55 1769.8 1395.29 1739.14 1369.92 1708.26C1339.28 1670.88 1311.54 1633.07 1281.57 1597.05C1226.92 1531.15 1158.83 1465.71 1067.84 1435.75Z" stroke="url(#paint14_linear_474_248)" stroke-width="1.4615" stroke-miterlimit="10" stroke-linecap="round" stroke-linejoin="round"/>
<path d="M1062.14 1439.8C1025.84 1427.68 987.565 1423.24 950.077 1416.47C874.75 1402.74 800.645 1378.5 738.224 1335.95C675.328 1292.78 624.514 1229.82 609.038 1154.88C586.12 1043.74 644.608 928.11 738.714 860.449C775.567 833.89 817.045 814.47 860.28 801.58C926.625 781.887 998.503 776.353 1065.71 782.321C1154.03 789.803 1245.96 814.438 1318.53 763.487C1369.38 727.842 1393.61 663.301 1434.28 615.045C1448.08 598.653 1461.87 585.286 1476.11 574.673C1543.83 524.257 1613.93 536.98 1704.73 541.141C1837.67 547.263 1977.83 529.092 2108.82 554.065C2222.88 575.859 2331.73 621.288 2401.11 701.825C2464.83 775.821 2488.89 872.593 2493.72 978.326C2494.38 992.533 2494.65 1006.72 2494.48 1021.02C2493.06 1139.67 2463.56 1248.88 2411.58 1333.97C2361.2 1416.37 2289.16 1485.88 2211.66 1559.43C2181.84 1587.71 2150.32 1616.97 2117.68 1646.25C2064.91 1693.82 2013.5 1738.72 1975.58 1786.52C1948.76 1820.23 1929.59 1855.2 1899.86 1882.55C1848.17 1930.24 1766.08 1950.1 1683.35 1937.5C1658.15 1933.7 1632.95 1926.87 1608.2 1917.76C1551.82 1897 1497.83 1864.03 1453.23 1824.02C1420.53 1794.61 1393.03 1762.45 1367.64 1729.58C1336.87 1690 1309.27 1649.6 1279.45 1611.23C1224.82 1540.79 1155.87 1470.81 1062.14 1439.8Z" stroke="url(#paint15_linear_474_248)" stroke-width="1.4231" stroke-miterlimit="10" stroke-linecap="round" stroke-linejoin="round"/>
<path d="M1056.37 1443.76C1018.78 1431.13 978.949 1426.84 940.002 1420.15C861.758 1406.6 784.424 1382.21 719.013 1338.61C653.276 1294.45 599.806 1229.5 582.805 1151.92C557.872 1037.29 616.932 916.55 713.551 846.054C751.412 818.41 794.25 798.079 838.93 784.859C907.433 764.548 981.771 759.354 1051.29 766.501C1142.59 775.658 1238 803.695 1313.85 752.108C1366.87 716.089 1392.49 649.61 1434.9 600.225C1449.36 583.452 1463.62 569.813 1478.43 558.873C1548.96 507.215 1620.98 521.969 1714.65 526.739C1851.88 533.774 1995.95 513.221 2131.57 537.283C2249.29 558.223 2362.36 603.35 2436.79 684.998C2504.74 759.57 2533.99 859.008 2539.8 967.316C2540.53 981.861 2540.92 996.474 2540.67 1011.08C2539 1132.76 2503.86 1244.85 2446.31 1331.39C2390.24 1415.7 2312.46 1485.51 2230.64 1560.29C2199.18 1589.01 2166.24 1618.85 2132.72 1649.01C2078.38 1697.99 2026.1 1745.53 1988.1 1796.89C1961.34 1833.09 1942.44 1870.92 1912.29 1901.03C1859.91 1953.4 1774.72 1977.05 1689 1965.8C1662.89 1962.4 1636.78 1955.72 1611.15 1946.62C1552.87 1925.82 1497.25 1891.78 1451.86 1849.96C1418.54 1819.27 1390.8 1785.37 1365.34 1750.65C1334.53 1708.83 1307.12 1665.93 1277.3 1625.17C1222.71 1550.43 1152.85 1475.83 1056.37 1443.76Z" stroke="url(#paint16_linear_474_248)" stroke-width="1.3846" stroke-miterlimit="10" stroke-linecap="round" stroke-linejoin="round"/>
<path d="M1050.66 1447.81C1011.77 1434.67 970.388 1430.52 929.983 1423.92C848.673 1410.5 768.313 1386.1 700.007 1341.41C631.334 1296.3 575.207 1229.36 556.776 1149.09C529.68 1030.93 589.257 904.989 688.444 831.752C727.259 802.929 771.472 781.93 817.635 768.23C888.391 747.248 965.135 742.3 1036.98 750.868C1131.17 761.755 1230.09 793.045 1309.37 740.862C1364.65 704.414 1391.49 636.106 1435.68 585.444C1450.74 568.194 1465.57 554.229 1480.86 543.26C1554.24 490.454 1628.14 507.145 1724.68 512.524C1866.21 520.471 2014.13 497.443 2154.43 520.687C2275.81 540.774 2393.15 585.449 2472.53 668.264C2544.62 743.466 2579.23 845.459 2585.88 956.303C2586.77 971.131 2587.14 986.137 2586.96 1001.08C2585.09 1125.9 2544.3 1240.62 2481.18 1328.62C2419.41 1414.83 2335.95 1485.02 2249.66 1561C2216.58 1590.16 2182.29 1620.52 2147.72 1651.67C2091.76 1702.21 2038.56 1752.29 2000.67 1807.12C1973.87 1845.85 1955.38 1886.58 1924.81 1919.45C1871.73 1976.5 1783.61 2003.99 1694.7 1993.96C1667.63 1990.85 1640.61 1984.57 1614.2 1975.42C1553.96 1954.49 1496.77 1919.48 1450.53 1875.75C1416.55 1843.69 1388.6 1808.14 1363.08 1771.57C1332.24 1727.5 1304.93 1682.16 1275.06 1638.92C1220.61 1560.07 1149.8 1480.99 1050.66 1447.81Z" stroke="url(#paint17_linear_474_248)" stroke-width="1.3462" stroke-miterlimit="10" stroke-linecap="round" stroke-linejoin="round"/>
<path d="M1044.99 1451.71C1004.65 1438.03 961.867 1434.06 919.95 1427.45C835.722 1414.21 752.228 1389.6 680.986 1343.97C609.432 1298.01 550.744 1229.03 530.788 1146.11C501.583 1024.52 561.637 893.521 663.432 817.396C703.349 787.433 748.734 765.631 796.341 751.601C869.255 730.001 948.405 725.299 1022.53 735.195C1119.75 747.851 1221.98 782.26 1304.64 729.629C1362.14 692.659 1390.39 622.656 1436.26 570.77C1451.93 553.046 1467.38 538.847 1483.2 527.7C1559.44 473.748 1635.21 492.376 1734.76 498.403C1880.59 507.263 2032.42 481.854 2177.35 504.186C2302.38 523.418 2423.95 567.791 2508.37 651.718C2584.75 727.59 2624.59 832.1 2632.13 945.574C2633.14 960.833 2633.52 976.082 2633.32 991.414C2631.19 1119.28 2584.66 1236.68 2516.08 1326.33C2448.62 1414.44 2359.32 1484.99 2268.86 1562.24C2234.14 1591.84 2198.49 1622.86 2162.98 1654.81C2105.36 1706.81 2051.38 1759.48 2013.42 1817.86C1986.57 1859.14 1968.45 1902.68 1937.46 1938.3C1883.65 2000.18 1792.47 2031.32 1700.57 2022.63C1672.59 2019.92 1644.66 2013.79 1617.37 2004.65C1555.22 1983.69 1496.41 1947.6 1449.28 1902.13C1414.69 1868.78 1386.49 1831.49 1360.82 1793.12C1329.84 1746.87 1302.81 1698.97 1272.95 1653.34C1218.5 1569.71 1146.78 1486 1044.99 1451.71Z" stroke="url(#paint18_linear_474_248)" stroke-width="1.3077" stroke-miterlimit="10" stroke-linecap="round" stroke-linejoin="round"/>
<path d="M1039.28 1455.76C997.642 1441.57 953.305 1437.74 909.929 1431.22C822.636 1418.12 736.116 1393.5 661.979 1346.77C587.624 1299.66 526.184 1228.74 504.798 1143.13C473.429 1018.01 534.055 881.906 638.323 803.095C679.249 772.047 725.954 749.483 775.045 734.973C850.212 712.702 931.822 708.34 1008.16 719.468C1108.27 733.854 1214.01 771.517 1300.05 718.196C1359.88 680.89 1389.42 609.004 1436.88 555.95C1453.21 537.844 1469.22 523.319 1485.42 511.954C1564.52 456.854 1642.11 477.325 1744.58 484.055C1894.66 493.734 2050.45 466.037 2200.01 487.457C2328.61 505.89 2454.49 549.906 2543.96 634.946C2624.47 711.448 2669.59 818.568 2678.12 934.617C2679.29 950.16 2679.7 965.895 2679.42 981.525C2677.03 1112.43 2624.91 1232.56 2550.75 1323.66C2477.55 1413.58 2382.62 1484.61 2287.7 1563.06C2251.44 1593.05 2214.35 1624.64 2177.88 1657.52C2118.74 1711.03 2063.9 1766.34 2025.79 1828.2C1998.91 1872.02 1981.2 1918.45 1949.79 1956.84C1895.29 2023.39 1801.02 2058.32 1706.07 2050.9C1677.1 2048.63 1648.34 2042.6 1620.17 2033.46C1556.02 2012.53 1495.78 1975.26 1447.71 1927.93C1412.44 1893.21 1384.05 1854.28 1358.32 1814.06C1327.3 1765.56 1300.37 1715.22 1270.6 1667.14C1216.4 1579.35 1143.82 1491.1 1039.28 1455.76Z" stroke="url(#paint19_linear_474_248)" stroke-width="1.2692" stroke-miterlimit="10" stroke-linecap="round" stroke-linejoin="round"/>
<path d="M1033.57 1459.81C990.539 1445.17 944.744 1441.43 899.91 1435C809.605 1422.12 719.856 1397.35 642.823 1349.53C565.533 1301.47 501.531 1228.52 478.62 1140.26C445.182 1011.56 506.38 870.344 613.162 788.699C655.19 756.512 703.121 733.24 753.696 718.251C831.021 695.362 915.036 691.246 993.803 703.741C1096.79 719.857 1206.11 760.867 1295.42 706.91C1357.42 669.23 1388.27 595.461 1437.56 541.223C1454.5 522.642 1471.13 507.884 1487.85 496.342C1569.72 440.149 1649.27 462.501 1754.61 469.84C1908.99 480.432 2068.68 450.354 2222.87 470.862C2355.18 488.535 2485.39 532.194 2579.69 618.212C2664.34 695.344 2714.78 804.926 2724.25 923.7C2725.5 939.58 2726.07 955.597 2725.72 971.768C2723.03 1105.86 2665.27 1228.62 2585.59 1321.28C2506.69 1413.1 2406.03 1484.43 2306.69 1564.16C2268.8 1594.59 2230.29 1626.76 2192.94 1660.52C2132.13 1715.5 2076.57 1773.48 2038.43 1838.76C2011.59 1885.06 1994.21 1934.46 1962.33 1975.5C1907.13 2046.73 1809.77 2085.46 1711.83 2079.39C1681.95 2077.52 1652.18 2071.69 1623.23 2062.5C1557.18 2041.54 1495.3 2003.19 1446.35 1954.12C1410.47 1918.12 1381.74 1877.49 1356.03 1835.37C1324.98 1784.63 1298.24 1731.79 1268.48 1681.32C1214.29 1588.99 1140.8 1496.11 1033.57 1459.81Z" stroke="url(#paint20_linear_474_248)" stroke-width="1.2308" stroke-miterlimit="10" stroke-linecap="round" stroke-linejoin="round"/>
<path d="M1027.81 1463.77C983.477 1448.62 936.129 1445.02 889.741 1438.73C796.52 1426.03 703.691 1401.15 623.817 1352.33C543.685 1303.27 477.027 1228.33 452.592 1137.43C417.139 1005.24 478.759 858.877 588.109 774.492C631.145 741.22 680.437 717.037 732.401 701.623C811.885 678.116 898.454 674.286 979.442 688.014C1085.41 705.805 1198.14 750.123 1290.79 695.624C1355.11 657.61 1387.21 581.863 1438.24 526.496C1455.83 507.534 1473.03 492.45 1490.19 480.783C1574.86 423.349 1656.24 447.787 1764.64 455.625C1923.31 467.13 2086.91 434.671 2245.64 454.321C2381.6 471.141 2516.04 514.497 2615.39 601.627C2704.22 679.483 2759.98 791.527 2770.35 912.931C2771.72 929.243 2772.36 945.598 2771.93 962.066C2768.99 1099.2 2705.57 1224.59 2620.38 1318.8C2535.73 1412.43 2429.54 1484.43 2325.78 1565.21C2286.32 1596.17 2246.41 1628.77 2208.09 1663.47C2145.67 1720 2089.29 1780.47 2051.12 1849.41C2024.24 1898.26 2007.23 1950.46 1974.97 1994.36C1919.04 2070.41 1818.69 2112.88 1717.64 2107.97C1686.86 2106.5 1656.17 2100.83 1626.44 2091.58C1558.48 2070.59 1494.98 2031.17 1445.18 1980.19C1408.64 1942.82 1379.71 1900.55 1353.94 1856.57C1322.76 1803.65 1296.3 1748.25 1266.49 1695.3C1212.19 1598.63 1137.74 1501.27 1027.81 1463.77Z" stroke="url(#paint21_linear_474_248)" stroke-width="1.1923" stroke-miterlimit="10" stroke-linecap="round" stroke-linejoin="round"/>
<path d="M1022.1 1467.82C976.412 1452.07 927.566 1448.71 879.665 1442.41C783.473 1429.79 687.563 1404.81 604.659 1355.09C521.687 1305.03 452.561 1227.99 426.467 1134.66C389.228 998.72 451.231 847.357 563.094 760.138C607.233 725.726 657.75 700.835 711.104 684.996C792.841 660.817 881.721 657.288 965.078 672.289C1073.93 691.809 1190.33 739.42 1286.26 684.286C1352.84 645.843 1386.15 568.266 1438.91 511.771C1457.12 492.333 1474.78 476.977 1492.62 465.172C1580.14 406.59 1663.4 432.965 1774.66 441.412C1937.55 453.884 2105.12 419.382 2268.5 437.727C2408.14 453.937 2546.78 496.747 2651.12 584.895C2744.09 663.381 2805.13 778.035 2816.48 902.015C2818.01 918.61 2818.63 935.357 2818.27 952.162C2815.07 1092.34 2746.01 1220.36 2655.26 1316.27C2564.96 1411.66 2452.9 1484.15 2344.82 1566.17C2303.72 1597.57 2262.44 1630.83 2223.19 1666.32C2159.1 1724.32 2101.95 1787.38 2063.7 1859.88C2036.78 1911.26 2020.09 1966.42 1987.46 2012.93C1930.83 2093.66 1827.38 2139.93 1723.34 2136.37C1691.66 2135.29 1660.06 2129.77 1629.45 2120.53C1559.58 2099.5 1494.4 2058.92 1443.87 2006.23C1406.71 1967.58 1377.58 1923.66 1351.66 1877.88C1320.44 1822.72 1294.08 1764.88 1264.36 1709.48C1210.08 1608.27 1134.78 1506.38 1022.1 1467.82Z" stroke="url(#paint22_linear_474_248)" stroke-width="1.1538" stroke-miterlimit="10" stroke-linecap="round" stroke-linejoin="round"/>
<path d="M1016.33 1471.77C969.254 1455.57 918.95 1452.3 869.591 1446.09C770.387 1433.69 671.397 1408.61 585.598 1357.79C499.689 1306.79 427.907 1227.76 400.477 1131.68C361.035 992.361 423.609 835.89 537.891 745.89C582.985 710.299 634.822 684.646 689.714 668.421C773.61 643.625 864.99 640.287 950.677 656.71C1062.56 678 1182.38 728.918 1281.59 673.148C1350.44 634.276 1385.04 554.816 1439.5 497.097C1458.3 477.184 1476.59 461.595 1494.8 449.573C1585.19 389.844 1670.26 418.061 1784.45 427.211C1951.63 440.596 2123.15 403.563 2291.12 421.146C2434.41 436.501 2577.34 479.104 2686.76 568.215C2783.93 647.425 2850.28 764.541 2862.52 891.151C2864.12 908.083 2864.81 925.168 2864.42 942.365C2861.02 1085.67 2786.26 1216.24 2690.04 1313.79C2594 1410.99 2476.25 1483.87 2363.86 1567.12C2321.22 1598.91 2278.51 1632.75 2238.29 1669.17C2172.68 1728.68 2114.51 1794.33 2076.38 1870.29C2049.45 1924.07 2033.08 1982.18 1999.99 2031.59C1942.57 2117.06 1836.14 2167.07 1729.1 2164.85C1696.52 2164.18 1663.99 2158.81 1632.51 2149.57C1560.74 2128.51 1493.93 2086.85 1442.51 2032.42C1404.68 1992.38 1375.36 1946.82 1349.37 1899.2C1318.12 1841.79 1291.9 1781.35 1262.23 1723.66C1207.83 1617.87 1131.76 1511.39 1016.33 1471.77Z" stroke="url(#paint23_linear_474_248)" stroke-width="1.1154" stroke-miterlimit="10" stroke-linecap="round" stroke-linejoin="round"/>
<path d="M1010.63 1475.83C962.247 1459.12 910.39 1455.98 859.572 1449.86C757.397 1437.55 655.232 1412.41 566.632 1360.44C477.882 1308.44 403.444 1227.43 374.489 1128.71C332.883 985.856 396.029 824.276 512.879 731.536C558.981 694.859 612.139 668.444 668.514 651.74C754.663 626.273 848.409 623.329 936.316 640.984C1051.09 664.004 1174.41 718.176 1277 661.715C1348.08 622.563 1383.99 541.22 1440.21 482.224C1459.68 461.929 1478.54 446.014 1497.27 433.814C1590.63 373.125 1677.47 403.091 1794.61 412.795C1966.09 427.093 2141.52 387.679 2314.12 404.349C2461.07 418.851 2608.22 461.151 2722.69 551.375C2824.04 631.309 2895.72 750.887 2908.84 880.127C2910.66 897.436 2911.32 914.912 2910.86 932.407C2907.2 1078.76 2826.88 1211.9 2724.96 1311.11C2623.27 1410.06 2499.79 1483.49 2382.99 1568.03C2338.72 1600.25 2294.67 1634.61 2253.4 1672.02C2186.11 1733 2127.17 1801.23 2088.96 1880.76C2061.99 1937.07 2045.99 1998 2012.48 2050.17C1954.21 2140.27 1844.84 2194.11 1734.75 2193.16C1701.17 2192.93 1667.79 2187.81 1635.46 2178.43C1561.73 2157.24 1493.36 2114.6 1441.09 2058.26C1402.65 2016.95 1372.98 1969.7 1347.02 1920.17C1315.63 1860.58 1289.61 1797.64 1260.04 1737.5C1205.72 1627.52 1128.71 1516.55 1010.63 1475.83Z" stroke="url(#paint24_linear_474_248)" stroke-width="1.0769" stroke-miterlimit="10" stroke-linecap="round" stroke-linejoin="round"/>
<path d="M1005.01 1479.82C955.24 1462.66 901.924 1459.61 849.648 1453.58C744.313 1441.46 639.068 1416.2 547.532 1363.3C455.942 1310.29 378.792 1227.2 348.407 1125.78C304.692 979.494 368.41 812.806 487.813 717.083C535.017 679.267 589.495 652.089 647.166 635.015C735.473 608.93 831.719 606.178 921.902 625.16C1039.65 649.855 1166.45 707.429 1272.32 650.332C1345.66 610.752 1382.87 527.525 1440.84 467.4C1460.91 446.63 1480.39 430.482 1499.55 418.158C1595.71 356.228 1684.48 388.225 1804.54 398.632C1980.27 413.749 2159.6 371.953 2336.89 387.806C2487.49 401.454 2638.8 443.749 2758.33 534.693C2863.78 615.406 2940.78 737.446 2954.89 869.261C2956.78 886.908 2957.5 904.722 2957.02 922.608C2953.16 1072.09 2866.93 1207.64 2759.65 1308.68C2652.05 1409.16 2522.96 1483.31 2401.93 1569.03C2355.98 1601.6 2310.56 1636.63 2268.41 1674.92C2199.51 1737.46 2139.74 1808.18 2101.45 1891.28C2074.44 1950.13 2058.85 2013.96 2024.92 2068.89C1966.02 2163.76 1853.5 2221.3 1740.42 2221.7C1705.88 2221.77 1671.63 2216.9 1638.43 2207.52C1562.8 2186.3 1492.79 2142.59 1439.64 2084.5C1400.53 2041.81 1370.66 1992.91 1344.65 1941.54C1313.22 1879.7 1287.39 1814.26 1257.73 1751.78C1203.62 1637.15 1125.69 1521.56 1005.01 1479.82Z" stroke="url(#paint25_linear_474_248)" stroke-width="1.0385" stroke-miterlimit="10" stroke-linecap="round" stroke-linejoin="round"/>
<path d="M2359.75 371.212C2514.11 383.952 2669.73 425.89 2794.12 518.055C2918.5 610.22 3007.49 758.033 3003.32 912.854C2999.2 1065.38 2907.53 1203.69 2794.53 1306.15C2681.53 1408.61 2546.41 1482.98 2421.02 1570.08C2295.73 1657.13 2175.72 1762.26 2114.18 1901.79C2087.13 1963.18 2071.96 2029.91 2037.55 2087.5C1978.01 2187.14 1862.4 2248.48 1746.22 2250.04C1630.1 2251.69 1516.14 2196.76 1438.41 2110.48C1350.91 2013.37 1309.91 1884.63 1255.68 1765.67C1201.46 1646.7 1122.67 1526.57 999.248 1483.78C948.122 1466.01 893.308 1463.2 839.573 1457.26C731.47 1445.35 622.996 1419.95 528.564 1365.95C434.133 1311.95 354.138 1226.97 322.377 1122.95C276.499 973.138 340.788 801.34 462.759 702.878C584.73 604.415 754.575 576.022 907.594 609.529C1028.23 635.954 1158.54 696.781 1267.74 639.143C1343.41 599.227 1381.77 514.078 1441.47 452.823C1566.03 325.078 1667.02 371.271 1814.48 384.473C1994.5 400.503 2177.84 356.272 2359.75 371.212Z" stroke="white" stroke-miterlimit="10" stroke-linecap="round" stroke-linejoin="round"/>
<path d="M988.366 1494.33C935.701 1473.69 883.148 1463.03 832.017 1453.32C729.365 1433.86 626.909 1407.13 537.665 1350.13C448.42 1293.13 372.724 1205.8 340.742 1100.53C296.094 954.153 357.367 787.367 473.831 689.821C591.089 591.69 755.704 559.902 906.178 589.22C1025.35 612.463 1154.68 668.959 1264.04 614.872C1341.13 576.774 1382.96 498.93 1443.66 441.373C1569.14 322.403 1669.44 366.101 1815.59 377.918C1990.57 391.957 2168.33 349.817 2344.93 362.539C2496.59 373.44 2649.83 411.472 2773.24 499.548C2896.65 587.624 2985.63 730.413 2985.43 881.433C2985.3 1031.28 2899.78 1170.44 2789.89 1274.37C2680.01 1378.31 2545.9 1454.22 2420.46 1540.36C2296.05 1625.89 2175.77 1728.15 2114.74 1866.38C2087.51 1928.13 2073.65 1995.61 2040.27 2053.87C1982.28 2156 1867.34 2215.45 1751.35 2220.17C1634.34 2224.85 1520.1 2178.13 1440.45 2098.11C1351.14 2008.33 1307.02 1886.17 1249.47 1771.9C1191.82 1657.67 1109.68 1541.75 988.366 1494.33Z" stroke="white" stroke-miterlimit="10" stroke-linecap="round" stroke-linejoin="round"/>
<path d="M977.542 1504.99C923.337 1481.45 873.195 1462.99 824.668 1449.51C727.967 1422.73 630.935 1394.49 546.917 1334.35C462.9 1274.21 391.368 1184.73 359.313 1078.24C315.802 935.355 374.003 773.487 485.054 676.802C597.545 578.908 757.04 543.915 904.915 568.949C1022.58 588.916 1151.11 641.214 1260.64 590.68C1339.06 554.453 1384.35 483.915 1446.1 429.906C1572.34 319.672 1672.16 361.008 1816.96 371.345C1986.85 383.543 2159.06 343.346 2330.31 353.755C2479.22 362.723 2630.08 396.848 2752.51 480.836C2874.94 564.823 2963.82 702.641 2967.58 849.862C2971.34 997.082 2892.16 1136.99 2785.24 1242.35C2678.32 1347.72 2545.44 1425.32 2419.79 1510.44C2296.17 1594.51 2175.57 1693.81 2115.23 1830.64C2087.73 1892.79 2075.12 1960.68 2042.97 2019.99C1986.24 2124.29 1872.23 2182.32 1756.33 2190.01C1638.38 2197.87 1523.95 2159.31 1442.38 2085.56C1351.32 2003.2 1304.13 1887.47 1243.15 1777.93C1182.13 1668.55 1096.61 1556.58 977.542 1504.99Z" stroke="white" stroke-miterlimit="10" stroke-linecap="round" stroke-linejoin="round"/>
<path d="M966.66 1515.55C910.808 1488.94 863.536 1463.04 817.261 1445.62C726.863 1411.67 634.997 1381.71 556.167 1318.58C477.431 1255.38 410.198 1163.55 377.881 1055.95C335.939 916.438 390.825 759.501 496.424 663.826C604.241 566.116 758.522 527.971 903.704 548.775C1019.95 565.413 1147.5 613.622 1257.14 566.545C1337.05 532.23 1385.46 469.067 1448.5 418.591C1575.17 317.163 1674.79 355.973 1818.19 364.98C1982.99 375.336 2149.66 337.082 2315.54 345.178C2461.76 352.307 2610.24 382.525 2731.69 462.425C2853.15 542.324 2942.01 675.117 2949.74 818.537C2957.55 963.173 2884.46 1103.83 2780.65 1210.67C2676.85 1317.51 2544.98 1396.66 2419.18 1480.86C2296.51 1563.51 2175.58 1659.86 2115.69 1795.29C2088.02 1857.79 2076.67 1926.34 2045.49 1986.47C1990.18 2093.22 1876.95 2149.54 1761.13 2160.2C1642.25 2171.24 1527.72 2140.79 1444.08 2073.26C1351.37 1998.27 1300.9 1889.08 1236.6 1784.23C1172.44 1679.43 1083.63 1571.12 966.66 1515.55Z" stroke="white" stroke-miterlimit="10" stroke-linecap="round" stroke-linejoin="round"/>
<path d="M955.927 1526.14C898.427 1496.46 854.378 1463.3 809.909 1441.81C726.086 1401.18 639.019 1369.08 565.471 1302.89C491.922 1236.71 428.988 1142.51 396.449 1033.66C355.778 897.438 407.499 745.473 507.644 650.808C610.789 553.281 759.895 511.836 902.438 528.505C1017.17 541.867 1143.99 585.973 1253.64 542.408C1335.18 510.045 1386.57 454.217 1450.89 407.274C1577.99 314.651 1677.37 351.085 1819.51 358.557C1979.22 367.072 2140.39 330.612 2300.97 336.489C2444.58 341.726 2590.59 368.091 2711.06 443.902C2831.54 519.713 2920.45 647.575 2932.1 787.101C2943.94 929.153 2876.95 1070.57 2776.26 1178.88C2675.51 1287.09 2544.61 1367.7 2418.71 1451.08C2296.76 1531.92 2175.63 1625.75 2116.38 1759.67C2088.54 1822.53 2078.45 1891.74 2048.34 1952.63C1994.48 2061.69 1881.99 2116.45 1766.25 2130.08C1646.44 2144.3 1531.86 2122.05 1446.16 2060.74C1351.85 1993.21 1298.15 1890.41 1230.42 1790.31C1162.66 1690.36 1070.63 1585.42 955.927 1526.14Z" stroke="white" stroke-miterlimit="10" stroke-linecap="round" stroke-linejoin="round"/>
<path d="M945.049 1536.7C885.94 1503.8 845.089 1463.75 802.505 1437.91C725.287 1391.07 642.991 1356.35 574.669 1287.02C506.348 1217.69 447.672 1121.29 414.966 1011.27C375.58 878.585 424.175 731.443 518.922 637.883C617.394 540.538 761.38 495.888 901.229 508.328C1014.54 518.36 1140.68 558.457 1250.14 518.269C1333.16 487.818 1394.11 448.103 1453.29 395.955C1567.62 295.365 1680 346.047 1820.83 352.133C1975.46 358.807 2131.18 324.235 2286.3 327.854C2427.22 331.251 2570.84 353.711 2690.25 425.487C2809.75 497.209 2898.71 620.141 2914.32 755.867C2930.26 895.428 2869.31 1037.51 2771.67 1147.19C2674.04 1256.88 2544.11 1338.94 2418.2 1421.44C2297.13 1500.77 2175.68 1591.64 2117 1724.36C2088.94 1787.72 2080.15 1857.43 2051.11 1919.09C1998.76 2030.55 1886.95 2083.66 1771.34 2100.35C1650.61 2117.75 1536.13 2103.74 1448.26 2048.46C1352.53 1988.29 1295.33 1892.05 1224.27 1796.63C1153.02 1701.33 1057.71 1599.41 945.049 1536.7Z" stroke="white" stroke-miterlimit="10" stroke-linecap="round" stroke-linejoin="round"/>
<path d="M934.166 1547.26C873.449 1511.14 836.053 1464.44 795.042 1433.92C724.568 1381.56 646.943 1343.38 583.957 1271.09C520.918 1198.71 466.352 1100.06 433.572 988.837C395.418 859.587 440.941 717.361 530.181 624.718C624.02 527.407 762.791 479.606 899.853 487.87C1011.74 494.572 1137.11 530.715 1246.54 493.945C1331.09 465.499 1395.66 434.886 1455.57 384.451C1568.48 289.46 1682.47 340.971 1821.95 345.578C1971.45 350.559 2121.8 317.578 2271.43 319.087C2409.69 320.497 2550.89 339.198 2669.32 406.886C2787.84 474.52 2877 592.561 2896.28 724.408C2916.41 861.424 2861.4 1004.22 2766.88 1115.38C2672.36 1226.54 2543.45 1310.15 2417.39 1391.73C2297.11 1469.6 2175.49 1557.55 2117.35 1688.82C2089.12 1752.53 2081.59 1822.9 2053.67 1885.42C2002.69 1999.23 1891.67 2050.88 1776.18 2070.4C1654.41 2091.03 1540.23 2085.15 1450.05 2036.11C1353.06 1983.33 1292.29 1893.55 1217.81 1802.88C1143.33 1712.2 1044.93 1613.21 934.166 1547.26Z" stroke="white" stroke-miterlimit="10" stroke-linecap="round" stroke-linejoin="round"/>
<path d="M923.34 1557.91C861.055 1518.42 826.995 1465.52 787.597 1430.17C723.8 1372.82 650.873 1330.8 593.114 1255.37C535.356 1179.94 484.994 1078.99 451.899 966.561C415.124 840.79 457.507 703.144 541.309 611.754C630.421 514.532 764.22 463.565 898.494 467.654C1009.02 471.12 1133.61 503.308 1242.89 469.768C1329.13 443.367 1396.73 421.94 1457.82 373.093C1569.45 283.741 1684.86 335.948 1823.18 339.209C1967.55 342.497 2112.38 311.068 2256.82 310.546C2392.57 310.009 2531.2 324.913 2648.65 388.512C2766.2 452.057 2855.55 565.207 2878.59 693.12C2902.87 827.74 2853.86 971.103 2762.39 1083.64C2670.93 1196.18 2543.09 1281.43 2416.88 1362.09C2297.49 1438.44 2175.5 1523.59 2117.91 1653.41C2089.41 1717.53 2083.23 1788.5 2056.29 1851.84C2006.82 1968.05 1896.38 2018.1 1781.07 2040.54C1658.38 2064.35 1544.49 2066.6 1451.85 2023.75C1353.59 1978.37 1289.17 1895.1 1211.35 1809.12C1133.64 1723.08 1032.18 1626.85 923.34 1557.91Z" stroke="white" stroke-miterlimit="10" stroke-linecap="round" stroke-linejoin="round"/>
<path d="M912.554 1568.41C848.795 1525.5 810.156 1472.73 780.286 1426.22C712.79 1375.53 655.031 1317.96 602.459 1239.54C549.888 1161.11 503.731 1057.86 470.563 944.217C434.925 821.94 474.222 688.968 552.68 598.777C637.158 501.589 765.837 447.416 897.378 447.425C1006.52 447.412 1130.41 475.983 1239.54 445.672C1327.41 421.223 1397.85 408.846 1460.31 361.723C1571.08 278.277 1687.54 331.007 1824.6 332.733C1963.8 334.477 2103.3 304.49 2242.25 301.859C2375.34 299.334 2511.55 310.48 2628.03 369.991C2744.6 429.447 2834.19 537.801 2860.95 661.685C2889.47 793.855 2846.35 937.84 2757.9 1051.9C2669.56 1165.91 2542.83 1252.66 2416.37 1332.46C2297.86 1407.29 2175.55 1489.48 2118.57 1617.95C2089.89 1682.42 2084.97 1754.05 2059.1 1818.15C2011.14 1936.76 1901.44 1985.26 1786.25 2010.51C1662.58 2037.65 1549.17 2047.92 1453.98 2011.33C1354.74 1973.18 1286.47 1896.53 1205.33 1815.24C1123.95 1733.96 1019.48 1640.35 912.554 1568.41Z" stroke="white" stroke-miterlimit="10" stroke-linecap="round" stroke-linejoin="round"/>
<path d="M901.671 1578.97C836.383 1532.54 799.637 1473.9 772.878 1422.32C710.507 1366.79 658.997 1305.23 611.653 1223.66C564.309 1142.1 522.356 1036.54 489.021 921.74C454.614 802.901 490.73 674.658 563.79 585.571C643.675 488.269 767.194 431.039 895.907 427.022C1003.73 423.624 1126.95 448.43 1235.78 421.307C1325.3 399.053 1389.51 379.585 1462.44 350.178C1587.21 299.9 1689.77 325.946 1825.56 326.138C1959.6 326.338 2093.81 297.644 2227.22 293.051C2357.81 288.58 2491.45 295.927 2606.9 351.255C2722.49 406.623 2812.43 510.126 2842.7 630.091C2875.53 759.905 2838.24 904.417 2752.91 1019.95C2667.62 1135.34 2541.97 1223.73 2415.36 1302.61C2297.74 1375.93 2175.06 1455.31 2118.77 1582.37C2089.92 1647.19 2086.41 1719.51 2061.46 1784.34C2015.06 1905.44 1905.95 1952.34 1790.93 1980.52C1666.3 2010.98 1553.41 2029.13 1455.57 1998.84C1355.3 1967.83 1283.23 1897.9 1198.67 1821.35C1114.26 1744.83 1006.81 1653.7 901.671 1578.97Z" stroke="white" stroke-miterlimit="10" stroke-linecap="round" stroke-linejoin="round"/>
<path d="M890.846 1589.62C824.029 1539.67 789.323 1475.2 765.432 1418.58C708.187 1358.19 662.927 1292.65 620.864 1208.03C578.802 1123.42 540.959 1015.62 507.55 899.598C474.28 784.253 507.35 660.535 575.026 572.796C650.17 475.339 768.623 414.999 894.657 406.995C1001.15 400.212 1123.67 421.401 1232.25 397.319C1323.44 377.11 1389.74 364.739 1464.8 339.01C1588.42 296.558 1692.22 321.261 1826.85 319.864C1955.72 318.521 2084.59 291.025 2212.61 284.512C2340.64 277.998 2471.76 281.642 2586.23 332.882C2700.84 384.161 2791.18 482.907 2825.02 598.804C2862.23 726.208 2830.69 871.302 2748.42 988.215C2666.24 1105.07 2541.61 1195.01 2414.95 1272.92C2298.21 1344.72 2175.26 1421.24 2119.42 1546.91C2090.36 1612.23 2088.15 1685.06 2064.33 1750.75C2019.44 1874.25 1911.02 1919.74 1796.07 1950.64C1670.56 1984.38 1558.19 2010.4 1457.67 1986.57C1356.55 1962.58 1280.4 1899.53 1192.46 1827.57C1104.47 1755.76 994.337 1666.94 890.846 1589.62Z" stroke="white" stroke-miterlimit="10" stroke-linecap="round" stroke-linejoin="round"/>
<path d="M880.059 1600.12C811.807 1546.6 789.362 1471.78 758.12 1414.62C718.053 1341.3 667.084 1279.81 630.154 1192.11C593.279 1104.5 559.734 994.34 526.159 877.16C494.119 765.253 523.995 646.021 586.342 559.724C656.837 462.058 770.224 398.606 893.485 386.67C998.599 376.409 1120.47 394.075 1228.84 373.128C1321.83 355.153 1390.05 349.595 1467.28 327.638C1589.57 292.878 1694.86 316.467 1828.26 313.387C1952.02 310.594 2075.49 284.203 2198.04 275.823C2323.6 267.213 2452.11 267.208 2565.6 314.359C2679.24 361.55 2770.06 455.485 2807.37 567.368C2848.98 692.361 2823.18 838.038 2744.02 956.423C2664.96 1074.75 2541.35 1166.24 2414.53 1243.23C2298.58 1313.57 2175.36 1387.23 2120.17 1511.39C2090.93 1577.07 2089.98 1650.55 2067.13 1717.06C2023.85 1842.9 1915.98 1886.95 1801.15 1920.67C1674.66 1957.74 1563.05 1991.37 1459.7 1974.2C1357.68 1957.15 1277.61 1901.01 1186.24 1833.8C1094.78 1766.64 981.806 1680.08 880.059 1600.12Z" stroke="white" stroke-miterlimit="10" stroke-linecap="round" stroke-linejoin="round"/>
<path d="M869.177 1610.68C799.531 1553.44 779.279 1473.71 750.658 1410.63C715.749 1333.83 670.997 1266.99 639.349 1176.24C607.701 1085.48 578.321 973.172 544.618 854.682C513.769 746.363 540.49 631.467 597.507 546.613C663.355 448.738 771.677 382.174 892.07 366.361C995.805 352.62 1117.08 366.858 1225.14 348.857C1319.77 333.077 1389.95 334.183 1469.38 316.242C1590.16 288.891 1697.05 311.554 1829.19 306.94C1947.75 302.752 2066 277.357 2182.98 267.164C2306.07 256.458 2431.92 252.71 2544.49 295.867C2657.05 339.023 2748.56 428.039 2789.14 536.016C2835.29 658.639 2815.09 804.858 2738.99 924.621C2662.89 1044.38 2540.51 1137.55 2413.48 1213.53C2298.47 1282.45 2174.87 1353.05 2120.19 1475.92C2090.68 1542 2091.23 1616.13 2069.31 1683.36C2027.58 1811.7 1920.36 1854.24 1805.59 1890.69C1678.19 1931.18 1567.22 1972.24 1461.05 1961.73C1358.32 1951.5 1274.04 1902.45 1179.34 1839.92C1085.09 1777.52 969.368 1693.18 869.177 1610.68Z" stroke="white" stroke-miterlimit="10" stroke-linecap="round" stroke-linejoin="round"/>
<path d="M858.351 1621.33C787.405 1560.31 768.954 1475.64 743.213 1406.88C713.204 1326.37 674.966 1254.26 648.505 1160.51C622.139 1066.71 596.869 952.151 562.998 832.5C533.326 727.526 556.798 617.021 608.635 533.648C669.726 435.376 773.09 365.89 890.711 346.144C993.16 328.871 1113.79 339.829 1221.55 324.774C1317.88 311.283 1389.91 318.864 1471.68 304.979C1590.88 284.699 1699.5 306.868 1830.42 300.572C1943.82 295.082 2056.76 270.495 2168.37 258.624C2288.93 245.727 2412.23 238.424 2523.82 277.492C2635.41 316.56 2727.55 400.805 2771.51 504.823C2822.35 625.115 2807.59 771.837 2734.61 893.072C2661.62 1014.31 2540.26 1109.02 2413.08 1184.09C2298.95 1251.49 2174.99 1319.28 2121 1440.74C2091.32 1507.17 2093.18 1582.05 2072.28 1649.96C2032.12 1780.78 1925.54 1821.82 1810.89 1861.1C1682.57 1905.01 1572.24 1953.49 1463.4 1949.68C1359.85 1946.09 1271.56 1904.26 1173.44 1846.47C1075.4 1788.39 957.121 1706.16 858.351 1621.33Z" stroke="white" stroke-miterlimit="10" stroke-linecap="round" stroke-linejoin="round"/>
<path d="M847.47 1631.89C775.279 1567.19 758.332 1477.5 735.807 1402.98C710.51 1318.87 678.935 1241.53 657.851 1144.68C636.766 1047.83 615.605 931.022 581.662 810.156C553.127 708.676 573.388 602.413 620.005 520.671C676.246 422.055 774.693 349.498 889.541 325.82C990.609 305.068 1110.61 312.746 1218.09 300.489C1316.18 289.381 1389.9 303.155 1474.06 293.419C1591.52 279.928 1701.99 302.035 1831.73 293.907C1939.88 287.171 2047.6 263.336 2153.68 249.747C2271.83 234.606 2392.47 223.802 2503.08 258.782C2613.69 293.761 2706.52 373.085 2753.76 473.199C2809.23 591.066 2799.97 738.384 2730.1 861.091C2660.23 983.798 2539.98 1080.01 2412.65 1154.16C2299.41 1220.04 2175.18 1284.97 2121.64 1405.04C2091.79 1471.82 2095 1547.3 2075.13 1616.12C2036.57 1749.29 1930.5 1789.03 1816.01 1830.98C1686.68 1878.36 1577.17 1933.92 1465.43 1937.07C1361 1940.02 1268.67 1905.55 1167.21 1852.46C1065.76 1799.36 944.779 1719.19 847.47 1631.89Z" stroke="white" stroke-miterlimit="10" stroke-linecap="round" stroke-linejoin="round"/>
<path d="M836.683 1642.4C763.286 1573.86 747.56 1479.32 728.494 1399.03C707.557 1311.15 682.998 1228.75 667.194 1128.85C651.242 1028.9 634.286 909.799 600.27 787.717C572.871 689.731 589.68 587.725 631.226 507.653C682.655 408.546 776.24 333.011 888.18 305.605C987.909 281.225 1107.33 285.718 1214.5 276.407C1314.34 267.682 1389.83 287.351 1476.36 282.157C1592.22 275.252 1704.35 297.405 1832.86 287.593C1935.82 279.706 2038.3 256.38 2138.92 241.168C2254.63 223.781 2372.63 209.478 2482.26 240.369C2591.84 271.165 2685.56 345.704 2735.83 441.927C2796.18 557.354 2792.18 705.284 2725.37 829.369C2658.56 953.454 2539.43 1051.4 2411.89 1124.54C2299.59 1189 2174.89 1250.93 2122.05 1369.59C2091.98 1436.87 2096.55 1512.96 2077.6 1582.5C2040.61 1718.16 1935.23 1756.5 1820.76 1801.08C1690.51 1851.88 1581.56 1914.53 1467.13 1924.77C1361.92 1934.21 1265.54 1907.11 1160.66 1858.76C1056.07 1810.24 932.57 1732.03 836.683 1642.4Z" stroke="white" stroke-miterlimit="10" stroke-linecap="round" stroke-linejoin="round"/>
<path d="M825.856 1653.05C751.347 1580.63 736.545 1481.15 721.048 1395.28C704.456 1303.38 687.02 1216.12 676.35 1113.12C665.679 1010.13 652.833 888.78 618.744 765.482C592.576 670.935 605.973 573.037 642.446 494.636C688.861 394.903 777.787 316.525 886.914 285.335C985.303 257.328 1104.1 258.784 1210.94 252.176C1312.54 245.834 1389.69 271.21 1478.7 270.746C1592.88 270.089 1706.76 292.87 1834.18 281.172C1931.95 272.132 2029.23 249.167 2124.25 232.535C2237.48 212.809 2352.88 195.099 2461.49 221.807C2570.09 248.515 2664.72 318.119 2718.03 410.452C2783.21 523.345 2784.52 671.981 2720.82 797.538C2657.12 923.095 2539.02 1022.59 2411.33 1094.81C2299.91 1157.75 2174.94 1216.82 2122.55 1334.09C2092.31 1401.73 2098.29 1478.51 2080.26 1548.77C2044.93 1686.87 1940.09 1723.76 1825.78 1771.02C1694.62 1825.24 1586.19 1894.89 1469.06 1912.21C1363.01 1928.04 1262.69 1908.5 1154.49 1864.83C1046.28 1821.17 920.416 1744.95 825.856 1653.05Z" stroke="white" stroke-miterlimit="10" stroke-linecap="round" stroke-linejoin="round"/>
<path d="M814.975 1663.61C739.356 1587.3 725.423 1482.8 713.642 1391.39C701.247 1295.43 690.99 1203.39 685.601 1097.35C680.211 991.307 671.475 867.707 637.313 743.194C612.283 652.14 622.212 558.256 653.817 481.66C695.218 381.3 779.28 299.946 885.798 265.107C982.887 233.323 1100.98 232.04 1207.6 228.081C1310.9 224.271 1389.94 255.095 1481.25 259.47C1593.83 264.764 1709.27 288.281 1835.45 274.657C1928.08 264.559 2019.96 241.821 2109.53 223.808C2220.32 201.594 2333.09 180.627 2440.71 203.247C2548.33 225.866 2643.89 290.535 2700.24 378.978C2770.48 489.323 2776.86 638.679 2716.22 765.613C2655.58 892.548 2538.61 993.784 2410.71 1064.99C2300.14 1126.56 2174.94 1182.62 2123.1 1298.44C2092.68 1366.43 2099.92 1443.86 2082.96 1514.9C2049.28 1655.44 1945.05 1690.97 1830.81 1740.96C1698.78 1798.7 1590.8 1875 1471.04 1899.75C1363.96 1921.84 1259.7 1909.85 1148.17 1870.88C1036.59 1832.05 908.357 1757.83 814.975 1663.61Z" stroke="white" stroke-miterlimit="10" stroke-linecap="round" stroke-linejoin="round"/>
<path d="M804.094 1674.16C727.457 1593.92 714.151 1484.4 706.181 1387.39C697.928 1287.28 694.998 1190.51 694.742 1081.38C694.485 972.249 690.008 846.442 655.718 720.619C631.824 633.059 638.138 543.149 664.875 468.357C701.112 367.332 780.61 283.08 884.369 244.552C980.063 209.046 1097.59 204.822 1203.88 203.565C1308.9 202.287 1389.9 238.262 1483.42 247.774C1594.71 259.098 1711.68 283.743 1836.66 268.044C1924.12 257.037 2010.73 234.323 2094.85 214.929C2203.14 190.133 2313.33 166.003 2419.97 184.534C2526.62 203.065 2623.29 262.691 2682.39 347.406C2757.65 455.108 2769.15 605.279 2711.62 733.685C2654.1 862.092 2538.2 964.971 2410.18 1035.11C2300.55 1095.26 2174.88 1148.33 2123.7 1262.89C2093.01 1331.28 2101.75 1409.36 2085.76 1481.21C2053.75 1624.18 1950.12 1658.36 1835.89 1710.98C1703 1772.24 1595.37 1855.25 1473.03 1887.28C1364.85 1915.54 1256.86 1911.24 1141.9 1877.01C1026.9 1842.93 896.297 1770.7 804.094 1674.16Z" stroke="white" stroke-miterlimit="10" stroke-linecap="round" stroke-linejoin="round"/>
<path d="M793.365 1684.76C715.656 1600.48 702.976 1485.95 698.832 1383.59C694.706 1279.08 699.024 1177.87 704.049 1065.69C709.074 953.515 708.558 825.421 674.344 698.423C651.587 614.356 654.19 528.474 676.207 455.528C706.985 353.756 782.16 266.592 883.121 224.525C977.366 185.202 1094.34 178.279 1200.34 179.576C1306.98 180.884 1390.18 221.754 1485.72 236.511C1595.7 253.623 1714.01 279.504 1837.9 261.676C1920.17 249.76 2001.5 226.826 2080.14 206.443C2185.98 178.916 2293.54 151.772 2399.21 166.214C2504.88 180.657 2602.61 235.145 2664.61 316.173C2744.98 421.178 2761.51 572.218 2707.1 702.096C2652.68 831.975 2537.86 936.498 2409.64 1005.62C2300.94 1064.35 2174.95 1114.46 2124.31 1227.57C2093.45 1296.32 2103.6 1375.09 2088.44 1447.72C2058.14 1593.23 1955.06 1625.96 1840.84 1681.22C1707.09 1745.99 1599.76 1835.62 1474.93 1875.12C1365.66 1909.54 1253.84 1912.98 1135.56 1883.44C1017.22 1853.8 884.335 1783.52 793.365 1684.76Z" stroke="white" stroke-miterlimit="10" stroke-linecap="round" stroke-linejoin="round"/>
<path d="M782.481 1695.32C703.849 1607.04 691.537 1487.27 691.423 1379.69C691.37 1270.69 702.935 1165.05 713.242 1049.82C723.549 934.594 727.142 804.253 692.707 676C671.086 595.426 669.83 513.533 687.277 442.471C712.445 339.914 783.447 249.878 881.703 204.216C974.5 161.077 1090.92 151.454 1196.69 155.4C1305.1 159.335 1390.39 204.909 1487.97 225.155C1596.86 247.796 1716.39 275.36 1839.07 255.214C1916.22 242.484 1992.11 219.29 2065.33 197.77C2168.65 167.417 2273.65 137.354 2378.34 147.707C2483.03 158.061 2581.82 207.411 2646.77 284.847C2732.38 386.951 2753.81 539.064 2702.45 670.32C2651.1 801.576 2537.44 907.687 2408.98 975.948C2301.17 1033.16 2174.81 1080.46 2124.72 1192.13C2093.65 1261.37 2105.24 1340.69 2091 1414.05C2062.36 1562 1959.88 1593.37 1845.67 1651.26C1711.06 1719.55 1603.94 1815.85 1476.77 1862.62C1366.3 1903.25 1250.85 1914.33 1129.14 1889.53C1007.52 1864.68 872.367 1796.34 782.481 1695.32Z" stroke="white" stroke-miterlimit="10" stroke-linecap="round" stroke-linejoin="round"/>
<path d="M771.601 1705.88C692.141 1613.55 680.103 1488.59 684.018 1375.79C687.983 1262.21 707.053 1152.36 722.493 1034.05C738.081 915.768 745.636 783.14 711.276 653.71C690.793 576.631 685.529 498.686 698.553 429.548C718.018 326.26 784.792 233.258 880.493 184.041C971.841 137.086 1087.62 124.818 1193.2 131.264C1303.37 137.825 1390.98 187.846 1490.46 213.785C1598.42 241.995 1719.13 271.391 1840.39 248.792C1912.38 235.396 1982.92 211.646 2050.75 189.083C2151.4 155.621 2253.94 122.826 2357.71 129.186C2461.43 135.451 2561.37 179.609 2629.13 253.412C2719.98 352.616 2746.3 505.801 2698.06 638.529C2649.82 771.257 2537.24 879.012 2408.56 946.26C2301.69 1002.05 2174.95 1046.3 2125.46 1156.61C2094.22 1226.21 2107.22 1306.23 2093.91 1380.31C2066.93 1530.69 1965.05 1560.71 1850.9 1621.33C1715.48 1693.23 1608.46 1796.02 1478.95 1850.29C1367.15 1897.1 1248.11 1915.91 1123.07 1895.8C997.832 1875.56 860.497 1809.1 771.601 1705.88Z" stroke="white" stroke-miterlimit="10" stroke-linecap="round" stroke-linejoin="round"/>
<path d="M760.773 1716.53C680.484 1620.16 668.666 1489.91 676.57 1372.05C684.594 1253.73 710.926 1139.69 731.742 1018.27C752.463 896.902 764.182 762.121 729.844 631.422C710.497 557.836 701.131 483.894 709.867 416.477C723.33 312.379 787.957 219.359 879.321 163.718C967.383 109.983 1084.4 98.1284 1189.79 107.074C1301.51 116.519 1391.66 170.73 1492.85 202.469C1600.06 236.14 1721.74 267.625 1841.71 242.372C1908.54 228.309 1973.62 203.813 2036.08 180.45C2134 143.786 2234.2 108.448 2336.89 110.774C2439.63 112.95 2540.71 151.673 2611.2 222.141C2707.42 318.241 2738.5 472.701 2693.32 606.807C2648.2 741.007 2536.74 850.5 2407.81 916.642C2301.87 971.01 2174.72 1012.36 2125.93 1121.26C2094.51 1191.21 2108.92 1271.92 2096.58 1346.82C2071.41 1499.69 1969.98 1528.31 1855.85 1591.57C1719.56 1666.98 1612.54 1776.31 1480.8 1838.03C1367.76 1890.97 1245.13 1917.51 1116.62 1902.04C988.045 1886.49 848.625 1821.87 760.773 1716.53Z" stroke="white" stroke-miterlimit="10" stroke-linecap="round" stroke-linejoin="round"/>
<path d="M749.989 1727.03C669.02 1626.65 657.273 1491.08 669.261 1368.09C681.288 1244.95 715.086 1126.85 741.089 1002.43C767.092 878.018 782.772 740.951 748.455 608.982C730.19 538.795 716.682 469.005 721.185 403.404C728.325 298.807 787.507 199.624 877.909 143.407C966.102 88.5902 1080.9 71.3562 1186.09 82.8018C1299.44 95.0757 1392.32 153.368 1495.04 191.016C1601.76 230.133 1724.25 263.912 1842.83 235.814C1904.65 221.125 1964.02 195.898 2021.22 171.681C2116.39 131.57 2214.25 93.9335 2315.92 92.076C2417.68 90.164 2519.95 123.546 2593.2 190.53C2694.75 283.432 2730.64 439.262 2688.58 574.84C2646.51 710.418 2536.18 821.648 2407.13 886.723C2302.05 939.723 2174.66 978.059 2126.32 1085.57C2094.64 1155.92 2110.55 1237.28 2099.04 1312.96C2075.52 1468.26 1974.75 1495.63 1860.67 1561.37C1723.68 1640.34 1616.51 1756.16 1482.59 1825.43C1368.11 1884.6 1241.99 1918.81 1110.15 1908.04C978.411 1897.46 836.811 1834.72 749.989 1727.03Z" stroke="white" stroke-miterlimit="10" stroke-linecap="round" stroke-linejoin="round"/>
<path d="M739.16 1737.68C657.458 1633.2 645.876 1492.25 661.853 1364.19C677.884 1236.23 719.053 1114.12 750.337 986.657C781.622 859.192 801.318 719.931 767.022 586.693C749.894 519.999 732.001 454.376 732.459 390.481C733.071 285.251 788.795 182.909 876.791 123.177C963.386 64.5046 1077.64 44.8145 1182.84 58.651C1297.72 73.8087 1393.68 136.113 1497.59 179.74C1603.94 224.343 1727.18 260.711 1844.21 229.486C1900.97 214.321 1954.57 188.025 2006.7 163.087C2098.72 119.263 2194.65 79.5947 2295.34 73.6487C2396.12 67.6481 2499.57 95.4462 2575.61 159.19C2682.57 248.839 2723.19 406.093 2684.23 543.143C2645.28 680.193 2536.14 793.255 2406.77 857.129C2302.73 908.896 2174.82 944.14 2127.12 1050.15C2095.26 1120.85 2112.58 1202.91 2101.99 1279.31C2080.29 1437.09 1980.02 1463.16 1865.9 1531.44C1728.1 1614.02 1620.78 1736.34 1484.72 1813.01C1368.85 1878.27 1239.3 1920.25 1104.03 1914.22C968.719 1908.33 824.993 1847.58 739.16 1737.68Z" stroke="white" stroke-miterlimit="10" stroke-linecap="round" stroke-linejoin="round"/>
<path d="M728.282 1748.24C645.939 1639.6 634.373 1493.24 654.448 1360.3C674.578 1227.45 723.118 1101.34 759.535 970.784C795.952 840.229 819.475 698.885 785.538 564.308C769.358 501.216 747.229 439.8 743.628 377.368C737.539 271.857 789.884 166.059 875.378 102.867C960.321 40.2436 1074.1 18.1917 1179.14 34.3794C1295.66 52.3665 1394.63 118.588 1499.72 168.194C1605.97 218.268 1729.87 257.524 1845.27 222.835C1897.13 207.232 1944.76 179.734 1991.83 154.318C2080.48 106.402 2174.71 65.0806 2274.42 55.046C2374.22 44.9569 2478.75 67.2254 2557.57 127.728C2669.84 213.936 2715.29 372.803 2679.39 511.231C2643.5 649.659 2535.48 764.458 2405.91 827.32C2302.81 877.664 2174.52 909.857 2127.33 1014.57C2095.26 1085.77 2114.12 1168.32 2104.36 1245.51C2084.55 1405.7 1984.76 1430.62 1870.54 1501.35C1732.03 1587.73 1624.46 1716.36 1486.31 1800.52C1369.02 1872.01 1236.06 1921.61 1097.37 1920.32C959.03 1919.21 813.273 1860.38 728.282 1748.24Z" stroke="white" stroke-miterlimit="10" stroke-linecap="round" stroke-linejoin="round"/>
<path d="M1488.46 1788.34C1369.58 1866.02 1233.29 1923.34 1091.36 1926.69C949.338 1930.09 801.55 1873.19 717.494 1758.74C634.566 1646.04 622.922 1494.31 647.041 1356.4C671.16 1218.48 727.086 1088.61 768.784 955.007C810.483 821.403 838.061 677.717 803.957 541.978C789.008 482.326 762.32 425.428 754.848 364.351C741.72 258.628 790.97 149.211 874.112 82.5972C957.254 15.9838 1070.69 -8.38988 1175.64 10.2431C1293.66 31.2629 1395.98 101.332 1502.12 156.877C1608.4 212.462 1733.08 255.038 1846.65 216.508C1893.65 200.561 1935.01 171.781 1977.21 145.779C2062.19 93.4491 2155.01 50.7964 2253.75 36.6731C2352.58 22.4955 2458.23 39.0855 2539.88 96.4415C2657.5 179.059 2707.74 339.689 2674.95 479.588C2642.08 619.542 2535.18 735.836 2405.45 797.78C2303.24 846.608 2174.59 875.993 2128.09 979.293C2095.84 1050.85 2116.02 1134.15 2107.33 1212.1C2089.18 1374.74 1989.93 1398.21 1875.84 1471.76C1736.36 1561.46 1628.6 1696.74 1488.46 1788.34Z" stroke="white" stroke-miterlimit="10" stroke-linecap="round" stroke-linejoin="round"/>
<defs>
<filter id="filter0_f_474_248" x="1144.03" y="1490.34" width="183" height="183" filterUnits="userSpaceOnUse" color-interpolation-filters="sRGB">
<feFlood flood-opacity="0" result="BackgroundImageFix"/>
<feBlend mode="normal" in="SourceGraphic" in2="BackgroundImageFix" result="shape"/>
<feGaussianBlur stdDeviation="3" result="effect1_foregroundBlur_474_248"/>
</filter>
<linearGradient id="paint0_linear_474_248" x1="6522" y1="2505.68" x2="4365.77" y2="1915.16" gradientUnits="userSpaceOnUse">
<stop offset="0.00067472" stop-color="#77C0C6"/>
<stop offset="1" stop-color="#A7B6E1"/>
</linearGradient>
<linearGradient id="paint1_linear_474_248" x1="6691.74" y1="2708.37" x2="4427.22" y2="2155.09" gradientUnits="userSpaceOnUse">
<stop offset="0.00067472" stop-color="#7CC2C8"/>
<stop offset="1" stop-color="#AAB9E2"/>
</linearGradient>
<linearGradient id="paint2_linear_474_248" x1="6871.97" y1="2950.81" x2="4497.02" y2="2441.08" gradientUnits="userSpaceOnUse">
<stop offset="0.00067472" stop-color="#81C5CA"/>
<stop offset="1" stop-color="#AEBCE3"/>
</linearGradient>
<linearGradient id="paint3_linear_474_248" x1="7069.24" y1="3247.86" x2="4580.7" y2="2788.45" gradientUnits="userSpaceOnUse">
<stop offset="0.00067472" stop-color="#87C7CD"/>
<stop offset="1" stop-color="#B1BEE4"/>
</linearGradient>
<linearGradient id="paint4_linear_474_248" x1="7288.82" y1="3624.19" x2="4682.07" y2="3221.62" gradientUnits="userSpaceOnUse">
<stop offset="0.00067472" stop-color="#8CCACF"/>
<stop offset="1" stop-color="#B5C1E6"/>
</linearGradient>
<linearGradient id="paint5_linear_474_248" x1="7538.09" y1="4120.61" x2="4807.34" y2="3781.95" gradientUnits="userSpaceOnUse">
<stop offset="0.00067472" stop-color="#91CCD1"/>
<stop offset="1" stop-color="#B8C4E7"/>
</linearGradient>
<linearGradient id="paint6_linear_474_248" x1="7827.74" y1="4781.11" x2="4967.08" y2="4514.48" gradientUnits="userSpaceOnUse">
<stop offset="0.00067472" stop-color="#96CFD3"/>
<stop offset="1" stop-color="#BBC7E8"/>
</linearGradient>
<linearGradient id="paint7_linear_474_248" x1="8167.69" y1="5687.53" x2="5171.01" y2="5500.84" gradientUnits="userSpaceOnUse">
<stop offset="0.00067472" stop-color="#9CD1D5"/>
<stop offset="1" stop-color="#BFCAE9"/>
</linearGradient>
<linearGradient id="paint8_linear_474_248" x1="8580.24" y1="6987.88" x2="5441.88" y2="6890.43" gradientUnits="userSpaceOnUse">
<stop offset="0.00067472" stop-color="#A1D3D8"/>
<stop offset="1" stop-color="#C2CCEA"/>
</linearGradient>
<linearGradient id="paint9_linear_474_248" x1="9119.7" y1="9001.33" x2="5827.66" y2="9002.51" gradientUnits="userSpaceOnUse">
<stop offset="0.00067472" stop-color="#A6D6DA"/>
<stop offset="1" stop-color="#C5CFEB"/>
</linearGradient>
<linearGradient id="paint10_linear_474_248" x1="9894.25" y1="12461.9" x2="6432.36" y2="12573.1" gradientUnits="userSpaceOnUse">
<stop offset="0.00067472" stop-color="#ABD8DC"/>
<stop offset="1" stop-color="#C9D2ED"/>
</linearGradient>
<linearGradient id="paint11_linear_474_248" x1="11122.6" y1="19436.3" x2="7495.86" y2="19668.6" gradientUnits="userSpaceOnUse">
<stop offset="0.00067472" stop-color="#B1DBDE"/>
<stop offset="1" stop-color="#CCD5EE"/>
</linearGradient>
<linearGradient id="paint12_linear_474_248" x1="14157.8" y1="40445.1" x2="10376.3" y2="40809.6" gradientUnits="userSpaceOnUse">
<stop offset="0.00067472" stop-color="#B6DDE0"/>
<stop offset="1" stop-color="#D0D8EF"/>
</linearGradient>
<linearGradient id="paint13_linear_474_248" x1="973.57" y1="-950.82" x2="973.558" y2="-950.819" gradientUnits="userSpaceOnUse">
<stop offset="0.00067472" stop-color="#BBDFE3"/>
<stop offset="1" stop-color="#D3DAF0"/>
</linearGradient>
<linearGradient id="paint14_linear_474_248" x1="-888.854" y1="45895.7" x2="3183.6" y2="45237.3" gradientUnits="userSpaceOnUse">
<stop offset="0.00067472" stop-color="#C0E2E5"/>
<stop offset="1" stop-color="#D6DDF1"/>
</linearGradient>
<linearGradient id="paint15_linear_474_248" x1="-3903.22" y1="24915.2" x2="298.178" y2="24097.3" gradientUnits="userSpaceOnUse">
<stop offset="0.00067472" stop-color="#C5E4E7"/>
<stop offset="1" stop-color="#DAE0F2"/>
</linearGradient>
<linearGradient id="paint16_linear_474_248" x1="-5113.17" y1="17948" x2="-792.477" y2="16963.1" gradientUnits="userSpaceOnUse">
<stop offset="0.00067472" stop-color="#CBE7E9"/>
<stop offset="1" stop-color="#DDE3F3"/>
</linearGradient>
<linearGradient id="paint17_linear_474_248" x1="-5874.23" y1="14479.4" x2="-1444.33" y2="13320.5" gradientUnits="userSpaceOnUse">
<stop offset="0.00067472" stop-color="#D0E9EB"/>
<stop offset="1" stop-color="#E1E6F5"/>
</linearGradient>
<linearGradient id="paint18_linear_474_248" x1="-6456.87" y1="12416.3" x2="-1928.86" y2="11078.3" gradientUnits="userSpaceOnUse">
<stop offset="0.00067472" stop-color="#D5ECED"/>
<stop offset="1" stop-color="#E4E9F6"/>
</linearGradient>
<linearGradient id="paint19_linear_474_248" x1="-6949.28" y1="11049.1" x2="-2335.63" y2="9527.85" gradientUnits="userSpaceOnUse">
<stop offset="0.00067472" stop-color="#DAEEF0"/>
<stop offset="1" stop-color="#E7EBF7"/>
</linearGradient>
<linearGradient id="paint20_linear_474_248" x1="-7387.22" y1="10095" x2="-2699.92" y2="8388.18" gradientUnits="userSpaceOnUse">
<stop offset="0.00067472" stop-color="#E0F0F2"/>
<stop offset="1" stop-color="#EBEEF8"/>
</linearGradient>
<linearGradient id="paint21_linear_474_248" x1="-7787.29" y1="9408.12" x2="-3037.74" y2="7513.16" gradientUnits="userSpaceOnUse">
<stop offset="0.00067472" stop-color="#E5F3F4"/>
<stop offset="1" stop-color="#EEF1F9"/>
</linearGradient>
<linearGradient id="paint22_linear_474_248" x1="-8166.77" y1="8885.55" x2="-3366.6" y2="6802.34" gradientUnits="userSpaceOnUse">
<stop offset="0.00067472" stop-color="#EAF5F6"/>
<stop offset="1" stop-color="#F1F4FA"/>
</linearGradient>
<linearGradient id="paint23_linear_474_248" x1="-8533.63" y1="8476.46" x2="-3693.75" y2="6204.73" gradientUnits="userSpaceOnUse">
<stop offset="0.00067472" stop-color="#EFF8F8"/>
<stop offset="1" stop-color="#F5F7FC"/>
</linearGradient>
<linearGradient id="paint24_linear_474_248" x1="-8891.14" y1="8151.04" x2="-4022.24" y2="5691.95" gradientUnits="userSpaceOnUse">
<stop offset="0.00067472" stop-color="#F5FAFB"/>
<stop offset="1" stop-color="#F8F9FD"/>
</linearGradient>
<linearGradient id="paint25_linear_474_248" x1="-9242.15" y1="7887.91" x2="-4354.51" y2="5243.46" gradientUnits="userSpaceOnUse">
<stop offset="0.00067472" stop-color="#FAFDFD"/>
<stop offset="1" stop-color="#FCFCFE"/>
</linearGradient>
</defs>
</svg>
