<svg width="25" height="25" viewBox="0 0 25 25" fill="none" xmlns="http://www.w3.org/2000/svg">
<path d="M19.7916 4.16669C20.3669 4.16669 20.8333 4.63306 20.8333 5.20835V7.29169C20.8333 7.86698 20.3669 8.33335 19.7916 8.33335C19.2163 8.33335 18.75 7.86698 18.75 7.29169V5.20835C18.75 4.63306 19.2163 4.16669 19.7916 4.16669Z" fill="#77C0C6"/>
<path d="M13.5416 17.7084C13.5416 17.1331 13.0753 16.6667 12.5 16.6667C11.9247 16.6667 11.4583 17.1331 11.4583 17.7084V19.7917C11.4583 20.367 11.9247 20.8334 12.5 20.8334C13.0753 20.8334 13.5416 20.367 13.5416 19.7917L13.5416 17.7084Z" fill="#77C0C6"/>
<path d="M12.5 4.16669C13.0753 4.16669 13.5416 4.63306 13.5416 5.20835V13.5417C13.5416 14.117 13.0753 14.5834 12.5 14.5834C11.9247 14.5834 11.4583 14.117 11.4583 13.5417V5.20835C11.4583 4.63306 11.9247 4.16669 12.5 4.16669Z" fill="#77C0C6"/>
<path d="M6.24996 5.20835C6.24996 4.63306 5.78359 4.16669 5.20829 4.16669C4.633 4.16669 4.16663 4.63306 4.16663 5.20835L4.16663 9.37502C4.16663 9.95032 4.633 10.4167 5.20829 10.4167C5.78359 10.4167 6.24996 9.95032 6.24996 9.37502L6.24996 5.20835Z" fill="#77C0C6"/>
<path d="M6.24996 13.5417C6.24996 12.9664 5.78359 12.5 5.20829 12.5C4.633 12.5 4.16663 12.9664 4.16663 13.5417L4.16663 19.7917C4.16663 20.367 4.633 20.8334 5.20829 20.8334C5.78359 20.8334 6.24996 20.367 6.24996 19.7917L6.24996 13.5417Z" fill="#77C0C6"/>
<path d="M20.8333 11.4584C20.8333 10.8831 20.3669 10.4167 19.7916 10.4167C19.2163 10.4167 18.75 10.8831 18.75 11.4584L18.75 19.7917C18.75 20.367 19.2163 20.8334 19.7916 20.8334C20.3669 20.8334 20.8333 20.367 20.8333 19.7917V11.4584Z" fill="#77C0C6"/>
<path fill-rule="evenodd" clip-rule="evenodd" d="M19.7917 12.5C18.0658 12.5 16.6667 11.1009 16.6667 9.375C16.6667 7.64911 18.0658 6.25 19.7917 6.25C21.5176 6.25 22.9167 7.64911 22.9167 9.375C22.9167 11.1009 21.5176 12.5 19.7917 12.5ZM19.7917 10.4167C19.2164 10.4167 18.75 9.9503 18.75 9.375C18.75 8.7997 19.2164 8.33333 19.7917 8.33333C20.367 8.33333 20.8334 8.7997 20.8334 9.375C20.8334 9.9503 20.367 10.4167 19.7917 10.4167Z" fill="#77C0C6"/>
<path fill-rule="evenodd" clip-rule="evenodd" d="M9.37504 15.625C9.37504 17.3509 10.7742 18.75 12.5 18.75C14.2259 18.75 15.625 17.3509 15.625 15.625C15.625 13.8991 14.2259 12.5 12.5 12.5C10.7742 12.5 9.37504 13.8991 9.37504 15.625ZM11.4584 15.625C11.4584 16.2003 11.9247 16.6667 12.5 16.6667C13.0753 16.6667 13.5417 16.2003 13.5417 15.625C13.5417 15.0497 13.0753 14.5833 12.5 14.5833C11.9247 14.5833 11.4584 15.0497 11.4584 15.625Z" fill="#77C0C6"/>
<path fill-rule="evenodd" clip-rule="evenodd" d="M2.08337 11.4583C2.08337 13.1842 3.48248 14.5833 5.20837 14.5833C6.93426 14.5833 8.33337 13.1842 8.33337 11.4583C8.33337 9.73244 6.93426 8.33333 5.20837 8.33333C3.48248 8.33333 2.08337 9.73244 2.08337 11.4583ZM4.16671 11.4583C4.16671 12.0336 4.63308 12.5 5.20837 12.5C5.78367 12.5 6.25004 12.0336 6.25004 11.4583C6.25004 10.883 5.78367 10.4167 5.20837 10.4167C4.63308 10.4167 4.16671 10.883 4.16671 11.4583Z" fill="#77C0C6"/>
</svg>
