<svg width="2416" height="2959" viewBox="0 0 2416 2959" fill="none" xmlns="http://www.w3.org/2000/svg">
<path d="M1101.62 1264.38C1168.92 1306.28 1195.61 1392.79 1258.27 1441.14C1336.79 1501.74 1446.77 1487.3 1545.92 1487.69C1645.07 1488.07 1764.97 1525.34 1784.31 1622.55C1799.01 1696.82 1743.44 1768.76 1677.69 1806.28C1611.93 1843.8 1535.6 1858.11 1466.37 1888.41C1402.29 1916.52 1344.4 1958.55 1297.98 2010.76C1230.68 2086.45 1187.62 2182.12 1115.03 2252.77C1042.44 2323.42 919.695 2361.72 841.562 2297.25C766.782 2235.49 774.647 2119.71 797.339 2025.46C820.031 1931.21 849.169 1825.62 799.273 1742.46C771.681 1696.69 722.816 1664.45 703.734 1614.56C636.174 1437.92 930.138 1157.62 1101.62 1264.38Z" stroke="url(#paint0_linear_471_135)" stroke-width="2" stroke-miterlimit="10" stroke-linecap="round" stroke-linejoin="round"/>
<path d="M1115.8 2261.02C1100.33 2275.85 1083.7 2289.9 1065.65 2302.28C1029.42 2327.16 987.772 2344.96 946.256 2350.63C902.677 2356.56 858.969 2349.08 823.126 2322.26C763.818 2277.78 748.346 2200.68 753.761 2123.45C755.824 2094.18 760.852 2065.04 767.557 2037.45C777.871 1994.78 790.378 1950.29 798.5 1907.23C809.331 1848.95 812.296 1792.1 784.833 1740.52C764.72 1703 730.166 1673.61 706.83 1638.15C699.481 1626.93 693.292 1615.33 688.908 1602.95C671.76 1553.83 681.688 1500.45 706.572 1446.82C743.059 1367.91 810.104 1290.55 886.819 1244.13C959.149 1200.3 1039.73 1183.28 1105.62 1217.96C1176.27 1255.22 1208.5 1338.51 1274.39 1387.51C1283.28 1394.08 1292.57 1400.01 1302.11 1405.17C1380.76 1447.72 1477.46 1442.69 1563.84 1450.55C1632.95 1456.87 1710.44 1482.79 1757.24 1533.59C1776.32 1554.22 1790.24 1579.1 1796.18 1608.88C1805.46 1655.43 1791.66 1701.2 1767.04 1738.98C1750.28 1765.02 1728.49 1787.32 1704.25 1804.6C1658.48 1837.09 1603.68 1857.33 1548.37 1880.41C1531.48 1887.38 1514.59 1894.73 1497.96 1902.59C1459.79 1920.77 1422.79 1942.69 1388.49 1967.31C1363.48 1985.36 1340.01 2004.83 1318.48 2025.85C1292.31 2051.38 1268.97 2079.1 1246.41 2107.46C1205.15 2159.04 1165.44 2213.32 1115.8 2261.02Z" stroke="url(#paint1_linear_471_135)" stroke-width="1.9615" stroke-miterlimit="10" stroke-linecap="round" stroke-linejoin="round"/>
<path d="M1116.58 2269.27C1099.81 2285.13 1082.41 2300.86 1063.58 2314.78C1025.68 2342.76 982.228 2363.78 937.875 2371.77C891.589 2380.15 844.142 2374.35 804.818 2347.28C740.48 2303.05 720.238 2222.08 724.364 2140.73C725.911 2109.78 730.939 2078.71 738.031 2049.44C748.861 2004.06 763.172 1957.39 774.003 1912.65C788.314 1852.43 796.824 1793.77 770.651 1738.46C751.569 1698.36 715.597 1666.64 692.26 1628.61C684.782 1616.49 678.722 1604.24 674.467 1591.09C657.577 1538.36 670.857 1484.2 698.062 1427.99C738.031 1345.22 804.817 1262.31 883.466 1210.74C956.957 1162.52 1039.99 1140.47 1109.87 1171.29C1183.88 1204.04 1221.65 1284.1 1290.76 1333.61C1300.17 1340.32 1309.72 1346.38 1319.64 1351.79C1401.26 1396.4 1497.83 1397.82 1582.15 1413.29C1650.22 1425.8 1724.1 1458.68 1769.74 1514.5C1788.18 1537.07 1801.98 1563.76 1808.3 1594.96C1818.22 1644.08 1806.36 1692.04 1785.47 1732.14C1771.16 1759.6 1752.85 1783.46 1730.94 1802.67C1689.81 1838.77 1636.82 1864.3 1580.99 1891.24C1563.97 1899.49 1546.69 1907.75 1529.54 1916.51C1490.22 1936.63 1451.15 1959.58 1414.54 1983.95C1387.72 2001.74 1362.45 2020.56 1338.98 2040.55C1310.49 2064.79 1284.7 2090.83 1259.69 2117.78C1213.79 2166.9 1168.79 2219.37 1116.58 2269.27Z" stroke="url(#paint2_linear_471_135)" stroke-width="1.9231" stroke-miterlimit="10" stroke-linecap="round" stroke-linejoin="round"/>
<path d="M1117.22 2277.52C1099.17 2294.54 1080.99 2311.82 1061.39 2327.29C1021.94 2358.49 976.554 2382.6 929.364 2393.05C880.37 2403.75 829.184 2399.62 786.379 2372.42C717.142 2328.45 692.001 2243.74 694.837 2158.13C695.869 2125.38 700.897 2092.63 708.246 2061.56C719.721 2013.6 735.838 1964.61 749.247 1918.19C767.297 1856.04 781.093 1795.7 756.08 1736.65C738.029 1693.98 700.768 1659.94 677.302 1619.45C669.824 1606.43 663.636 1593.41 659.639 1579.74C643.007 1523.53 659.639 1468.48 689.164 1409.55C732.614 1323.04 799.014 1234.46 879.726 1177.73C954.506 1125.13 1039.86 1098.05 1113.61 1125C1190.71 1153.24 1234.16 1229.95 1306.62 1280.23C1316.42 1287.07 1326.47 1293.26 1336.66 1298.8C1421.37 1345.47 1517.81 1353.47 1599.81 1376.29C1666.98 1395.11 1737.25 1434.82 1781.6 1495.81C1799.53 1520.31 1813.06 1548.67 1819.77 1581.42C1830.21 1633.12 1820.41 1683.53 1803.27 1725.57C1791.4 1754.58 1776.58 1779.72 1757.11 1800.99C1720.75 1840.7 1669.56 1871.52 1613.22 1902.33C1596.07 1911.74 1578.54 1921.03 1560.74 1930.7C1520.13 1952.74 1479.13 1976.72 1440.06 2000.96C1411.57 2018.63 1384.37 2036.68 1358.97 2055.63C1328.15 2078.71 1299.91 2103.08 1272.45 2128.48C1222.43 2174.76 1172.27 2225.43 1117.22 2277.52Z" stroke="url(#paint3_linear_471_135)" stroke-width="1.8846" stroke-miterlimit="10" stroke-linecap="round" stroke-linejoin="round"/>
<path d="M1117.99 2285.65C1098.65 2303.7 1079.7 2322.65 1059.33 2339.67C1018.2 2373.96 970.881 2401.3 920.984 2414.06C869.283 2427.21 814.487 2424.63 768.071 2397.17C693.935 2353.46 664.023 2265.02 665.312 2175.15C665.699 2140.73 670.727 2106.17 678.592 2073.42C690.712 2022.75 708.634 1971.44 724.75 1923.48C746.282 1859.27 765.621 1797.38 741.898 1734.59C724.879 1689.34 686.328 1652.85 662.734 1609.91C655.127 1596.12 649.067 1582.19 645.07 1567.88C628.825 1508.06 648.68 1452.23 680.655 1390.73C727.586 1300.35 793.857 1206.23 876.374 1144.34C952.315 1087.35 1039.99 1055.25 1117.86 1078.33C1198.19 1102.18 1247.31 1175.41 1322.99 1226.34C1333.18 1233.17 1343.62 1239.49 1354.2 1245.42C1441.87 1294.16 1538.44 1308.86 1618.12 1339.03C1684.39 1364.17 1750.92 1410.71 1794.24 1476.73C1811.52 1503.16 1825.06 1533.33 1832.02 1567.49C1843.11 1621.77 1835.37 1674.51 1821.96 1718.73C1812.68 1749.29 1801.2 1775.72 1784.05 1799.06C1752.34 1842.38 1702.96 1878.48 1646.1 1913.16C1628.82 1923.73 1610.9 1934.05 1592.59 1944.62C1550.82 1968.6 1507.75 1993.49 1466.37 2017.6C1436.07 2035.13 1407.06 2052.41 1379.72 2070.33C1346.59 2092.12 1315.9 2114.81 1285.86 2138.79C1231.07 2182.63 1175.75 2231.62 1117.99 2285.65Z" stroke="url(#paint4_linear_471_135)" stroke-width="1.8462" stroke-miterlimit="10" stroke-linecap="round" stroke-linejoin="round"/>
<path d="M1118.77 2293.9C1098.14 2313.11 1078.41 2333.61 1057.14 2352.17C1014.46 2389.69 965.209 2420.12 912.475 2435.21C858.066 2450.68 799.66 2449.77 749.634 2422.18C670.599 2378.73 635.788 2286.55 635.788 2192.43C635.659 2156.33 640.687 2119.97 648.939 2085.41C661.703 2032.16 681.3 1978.53 700.125 1929.02C725.137 1862.88 750.021 1799.31 727.587 1732.65C711.471 1684.95 671.759 1646.01 647.907 1600.5C640.171 1585.8 634.111 1571.1 630.372 1556.28C614.514 1492.84 637.593 1436.24 671.888 1372.16C722.301 1277.91 788.314 1178.25 872.764 1111.2C949.995 1049.96 1039.73 1012.83 1121.73 1031.91C1205.15 1051.38 1260.08 1121.26 1338.98 1172.7C1349.68 1179.67 1360.51 1186.11 1371.47 1192.3C1462.11 1243.23 1558.81 1264.63 1636.17 1302.02C1701.67 1333.61 1764.46 1386.73 1806.49 1458.03C1823.25 1486.39 1836.53 1518.24 1843.88 1554.08C1855.48 1610.81 1849.94 1666 1840.14 1712.41C1833.31 1744.52 1825.18 1772.24 1810.62 1797.64C1783.67 1844.44 1735.96 1885.96 1678.72 1924.51C1661.31 1936.24 1643 1947.71 1624.18 1959.06C1581.25 1985.1 1535.99 2010.89 1492.28 2034.87C1460.31 2052.28 1429.36 2068.78 1400.1 2085.8C1364.64 2106.3 1331.5 2127.32 1299.01 2149.88C1239.7 2190.49 1179.24 2237.81 1118.77 2293.9Z" stroke="url(#paint5_linear_471_135)" stroke-width="1.8077" stroke-miterlimit="10" stroke-linecap="round" stroke-linejoin="round"/>
<path d="M1119.41 2302.15C1097.49 2322.39 1076.86 2344.57 1054.94 2364.68C1010.72 2405.29 959.406 2438.95 903.965 2456.35C846.848 2474.27 784.832 2474.79 731.196 2447.2C647.262 2403.88 607.55 2308.08 606.261 2209.71C605.616 2171.8 610.516 2133.64 619.283 2097.41C632.692 2041.58 654.095 1985.49 675.498 1934.44C704.12 1866.36 734.419 1801.12 713.275 1730.72C698.19 1680.44 657.189 1639.18 633.208 1591.09C625.343 1575.49 619.412 1560.15 615.802 1544.54C600.33 1477.63 626.503 1420.25 663.249 1353.34C717.014 1255.22 782.898 1150.14 869.282 1077.81C947.673 1012.18 1039.73 970.153 1125.86 985.238C1212.24 1000.32 1273.1 1066.72 1355.23 1118.81C1366.31 1125.77 1377.53 1132.48 1388.88 1138.93C1482.61 1191.92 1579.31 1220.41 1654.22 1264.63C1718.81 1302.8 1777.87 1362.49 1818.74 1438.82C1834.98 1469.12 1848 1502.77 1855.74 1540.03C1867.99 1599.34 1864.38 1656.97 1858.32 1705.32C1854.06 1738.97 1849.29 1767.98 1837.05 1795.58C1814.74 1845.86 1768.84 1892.79 1711.21 1935.21C1693.67 1948.1 1674.98 1960.61 1655.64 1972.86C1611.54 2000.84 1564.23 2027.65 1518.2 2051.38C1484.42 2068.65 1451.67 2084.51 1420.47 2100.37C1382.69 2119.71 1347.1 2139.05 1312.16 2160.07C1248.21 2198.36 1182.59 2243.87 1119.41 2302.15Z" stroke="url(#paint6_linear_471_135)" stroke-width="1.7692" stroke-miterlimit="10" stroke-linecap="round" stroke-linejoin="round"/>
<path d="M1120.19 2310.4C1096.85 2331.81 1075.57 2355.53 1052.88 2377.32C1006.98 2421.16 953.863 2457.9 895.457 2477.63C835.632 2497.87 769.877 2500.06 712.76 2472.21C623.926 2429.02 579.316 2329.48 576.608 2226.98C575.448 2187.4 580.347 2147.43 589.501 2109.4C603.555 2050.86 626.634 1992.59 650.873 1939.85C682.977 1869.71 718.82 1802.93 698.965 1728.66C684.782 1675.8 642.621 1632.09 618.511 1581.68C610.646 1565.18 604.586 1549.06 601.105 1532.94C585.891 1462.42 615.417 1404.27 654.483 1334.77C711.729 1232.79 777.355 1122.17 865.674 1044.68C945.353 974.797 1039.47 927.865 1129.86 938.825C1219.33 949.655 1285.99 1012.44 1371.34 1065.18C1382.82 1072.27 1394.42 1079.1 1406.16 1085.68C1502.86 1140.73 1599.55 1176.32 1672.27 1227.5C1736.09 1272.37 1791.4 1338.38 1831.12 1420C1846.72 1452.1 1859.61 1487.56 1867.73 1526.37C1880.63 1588.25 1879.08 1648.21 1876.63 1698.75C1874.95 1733.82 1873.41 1764.25 1863.74 1793.9C1846.07 1847.67 1802.11 1900.01 1743.83 1946.3C1726.17 1960.35 1707.08 1973.89 1687.36 1987.04C1642.1 2016.95 1592.72 2044.8 1544.24 2068.27C1508.79 2085.42 1474.23 2100.5 1440.97 2115.33C1400.87 2133.38 1362.84 2151.04 1325.44 2170.64C1256.85 2206.23 1186.07 2249.93 1120.19 2310.4Z" stroke="url(#paint7_linear_471_135)" stroke-width="1.7308" stroke-miterlimit="10" stroke-linecap="round" stroke-linejoin="round"/>
<path d="M1120.83 2318.65C1096.2 2341.09 1074.16 2366.49 1050.69 2389.82C1003.24 2436.75 948.189 2476.72 886.946 2498.77C824.414 2521.33 755.049 2525.2 694.322 2497.22C600.717 2454.16 551.207 2351.01 547.081 2244.13C545.405 2202.74 550.176 2161.1 559.846 2121.39C574.544 2060.27 599.428 1999.55 626.246 1945.27C661.831 1873.19 703.089 1804.73 684.523 1726.73C671.372 1671.29 627.922 1625.26 603.682 1572.27C595.689 1554.86 589.758 1537.97 586.406 1521.21C571.707 1447.07 604.327 1388.15 645.714 1316.08C706.441 1210.22 771.81 1094.19 862.062 1011.41C942.902 937.276 1039.21 885.445 1133.72 892.278C1226.17 898.983 1298.63 958.162 1387.33 1011.41C1399.19 1018.63 1411.31 1025.59 1423.3 1032.43C1522.97 1089.54 1619.67 1132.48 1690.06 1190.24C1752.98 1241.94 1804.68 1314.27 1843.11 1400.91C1858.19 1434.95 1870.95 1472.21 1879.34 1512.44C1892.74 1576.78 1893.39 1639.31 1894.55 1691.91C1895.32 1728.53 1897.26 1760.12 1889.91 1791.97C1876.89 1849.08 1834.72 1906.84 1776.06 1957.13C1758.27 1972.47 1738.8 1986.91 1718.56 2000.96C1672.14 2032.81 1620.7 2061.69 1569.9 2085.03C1532.64 2102.05 1496.28 2116.36 1461.08 2130.15C1418.66 2146.92 1378.05 2163.03 1338.21 2181.21C1265.49 2214.09 1189.42 2256.12 1120.83 2318.65Z" stroke="url(#paint8_linear_471_135)" stroke-width="1.6923" stroke-miterlimit="10" stroke-linecap="round" stroke-linejoin="round"/>
<path d="M1121.6 2326.9C1095.69 2350.5 1072.87 2377.45 1048.5 2402.33C999.374 2452.48 942.386 2495.55 878.436 2520.04C813.196 2545.06 740.221 2550.34 675.884 2522.36C577.38 2479.56 522.971 2372.67 517.556 2261.54C515.364 2218.47 520.134 2175.02 530.062 2133.51C545.405 2069.68 571.965 2006.77 601.49 1950.81C640.557 1876.67 687.359 1806.66 670.082 1724.92C657.833 1667.03 613.223 1618.42 588.855 1562.98C580.732 1544.67 574.93 1527.01 571.707 1509.73C557.395 1431.99 593.239 1372.29 636.946 1297.51C701.155 1187.92 766.394 1066.21 858.452 978.276C940.581 899.756 1038.96 843.155 1137.72 845.863C1233.13 848.441 1311.52 903.882 1403.32 957.775C1415.7 964.996 1428.07 972.216 1440.45 979.307C1543.21 1038.49 1639.78 1088.77 1707.98 1153.24C1769.87 1211.77 1818.09 1290.29 1855.22 1382.22C1869.79 1418.19 1882.3 1457.13 1891.07 1498.9C1905.12 1565.82 1907.83 1630.67 1912.6 1685.34C1915.95 1723.5 1921.11 1756.38 1916.34 1790.29C1907.83 1850.89 1867.6 1914.06 1808.42 1968.22C1790.37 1984.72 1770.65 2000.32 1749.89 2015.15C1702.31 2048.93 1648.8 2078.84 1595.68 2101.92C1556.75 2118.81 1518.45 2132.35 1481.32 2145.11C1436.58 2160.71 1393.52 2175.02 1351.23 2191.78C1274.13 2221.95 1192.9 2262.18 1121.6 2326.9Z" stroke="url(#paint9_linear_471_135)" stroke-width="1.6538" stroke-miterlimit="10" stroke-linecap="round" stroke-linejoin="round"/>
<path d="M1122.38 2335.16C1095.17 2359.78 1071.58 2388.41 1046.43 2414.84C995.764 2468.09 936.842 2514.24 870.056 2541.19C802.109 2568.52 725.523 2575.49 657.576 2547.38C554.301 2504.7 494.864 2394.21 488.03 2278.81C485.323 2233.95 490.093 2188.82 500.408 2145.5C516.395 2079.1 544.76 2013.86 576.993 1956.23C619.67 1880.16 671.887 1808.47 655.9 1722.86C644.683 1662.39 598.783 1611.33 574.286 1553.44C566.163 1534.23 560.232 1515.8 557.138 1497.87C543.213 1416.52 582.151 1356.05 628.308 1278.69C695.998 1165.23 760.979 1038.1 854.971 944.884C938.39 862.11 1038.83 800.738 1141.72 799.191C1240.09 797.644 1324.41 849.346 1419.43 903.884C1432.2 911.233 1444.96 918.582 1457.73 925.931C1563.45 987.174 1659.89 1044.81 1725.91 1115.85C1786.76 1181.35 1831.5 1265.92 1867.47 1363.01C1881.53 1400.92 1893.78 1441.66 1902.93 1484.85C1917.5 1554.35 1922.4 1621.65 1930.91 1678.38C1936.84 1718.09 1945.22 1752.26 1942.9 1788.23C1938.9 1852.18 1900.61 1920.9 1841.04 1978.92C1822.86 1996.58 1802.88 2013.21 1781.48 2028.82C1732.61 2064.53 1677.17 2095.47 1621.6 2118.42C1580.86 2135.18 1540.76 2148.08 1501.69 2159.81C1454.63 2174.12 1409.12 2186.89 1364.38 2202.1C1282.77 2229.82 1196.25 2268.24 1122.38 2335.16Z" stroke="url(#paint10_linear_471_135)" stroke-width="1.6154" stroke-miterlimit="10" stroke-linecap="round" stroke-linejoin="round"/>
<path d="M1123.02 2343.28C1094.4 2368.94 1070.16 2399.24 1044.24 2427.22C992.027 2483.69 931.042 2532.94 861.548 2562.21C790.893 2591.86 710.698 2600.37 639.14 2572.13C530.966 2529.46 466.758 2415.48 458.507 2295.83C455.154 2249.29 459.925 2202.23 470.755 2157.36C487.387 2088.25 517.429 2020.69 552.369 1961.64C598.527 1883.64 656.159 1810.28 641.59 1720.93C631.275 1657.88 584.215 1604.5 559.46 1544.16C551.209 1523.92 545.407 1504.97 542.441 1486.4C528.903 1401.43 571.064 1340.19 619.672 1260.25C690.842 1142.92 755.695 1010.38 851.491 911.878C936.199 824.849 1038.7 758.836 1145.84 752.776C1247.31 747.103 1337.44 795.195 1435.68 850.249C1448.83 857.727 1462.11 865.205 1475.13 872.812C1583.95 936.117 1680.14 1001.23 1744.09 1078.85C1803.78 1151.3 1845.17 1242.07 1879.85 1344.32C1893.39 1384.03 1905.51 1426.57 1914.92 1471.44C1930.14 1543.52 1937.1 1613.14 1949.22 1672.06C1957.73 1713.32 1969.33 1748.65 1969.59 1786.81C1970.1 1854.24 1933.75 1928.38 1873.79 1990.27C1855.48 2009.09 1835.11 2026.75 1813.19 2043.26C1763.17 2080.9 1705.67 2112.88 1647.77 2135.57C1605.36 2152.2 1563.32 2164.32 1522.45 2175.02C1473.07 2188.05 1425.11 2199.13 1377.92 2212.93C1291.41 2237.81 1199.74 2274.3 1123.02 2343.28Z" stroke="url(#paint11_linear_471_135)" stroke-width="1.5769" stroke-miterlimit="10" stroke-linecap="round" stroke-linejoin="round"/>
<path d="M1123.79 2351.53C1093.88 2378.22 1068.87 2410.19 1042.18 2439.72C988.287 2499.29 925.497 2551.76 853.166 2583.35C779.804 2615.45 695.998 2625.38 620.831 2597.15C507.757 2554.6 438.65 2437.01 429.109 2313.11C425.241 2264.89 430.011 2216.02 441.228 2169.35C458.505 2097.66 490.223 2027.78 527.871 1967.06C577.51 1886.99 640.686 1812.08 627.406 1718.86C618.123 1653.36 569.774 1597.41 544.89 1534.62C536.509 1513.47 530.836 1493.75 528 1474.54C514.977 1386.09 560.233 1323.94 611.161 1241.3C685.812 1120.1 750.536 982.144 848.138 878.354C934.135 787.07 1038.7 716.286 1150.1 705.972C1254.53 696.302 1350.59 740.526 1452.05 796.224C1465.72 803.702 1479.26 811.309 1492.67 819.174C1604.45 884.542 1700.25 957.131 1762.27 1041.19C1820.8 1120.62 1858.96 1217.44 1892.36 1324.85C1905.25 1366.49 1917.24 1410.84 1927.04 1457.13C1942.77 1531.65 1951.92 1603.85 1967.65 1664.71C1978.61 1707.52 1993.57 1744.13 1996.28 1784.36C2001.18 1855.27 1967.01 1934.82 1906.41 2000.58C1887.97 2020.56 1867.22 2039.26 1844.78 2056.66C1793.6 2096.37 1734.03 2129.12 1673.69 2151.69C1629.47 2168.19 1585.63 2179.54 1542.82 2189.21C1490.99 2201.07 1440.71 2210.35 1391.07 2222.73C1300.04 2245.68 1202.96 2280.23 1123.79 2351.53Z" stroke="url(#paint12_linear_471_135)" stroke-width="1.5385" stroke-miterlimit="10" stroke-linecap="round" stroke-linejoin="round"/>
<path d="M1124.44 2359.78C1093.24 2387.63 1067.45 2421.15 1039.86 2452.22C984.419 2515.01 919.566 2570.58 844.528 2604.49C768.458 2638.92 681.042 2650.52 602.265 2622.16C484.421 2579.74 410.285 2458.41 399.326 2330.38C394.942 2280.36 399.584 2229.82 411.317 2181.34C429.238 2106.95 462.76 2034.74 503.116 1972.47C556.236 1890.47 624.828 1813.88 612.966 1716.93C604.586 1648.85 555.076 1590.57 530.063 1525.2C521.682 1503.16 515.88 1482.66 513.173 1462.93C500.537 1370.87 549.016 1307.95 602.265 1222.73C680.269 1097.67 744.864 954.165 844.399 845.217C931.686 749.679 1038.44 674.253 1153.84 659.555C1261.36 645.888 1363.22 686.373 1467.91 742.587C1481.97 750.194 1496.02 757.93 1509.82 766.053C1624.57 833.613 1720.1 913.551 1780.19 1004.19C1837.56 1090.57 1872.37 1193.46 1904.48 1306.15C1916.86 1349.73 1928.59 1395.76 1938.77 1443.59C1955.15 1520.69 1966.49 1595.21 1985.7 1658.26C1999.24 1702.61 2017.29 1740.52 2022.71 1782.81C2032.12 1857.08 1999.89 1942.17 1938.9 2011.79C1920.34 2033.07 1899.19 2052.79 1876.24 2070.97C1823.9 2112.62 1762.27 2146.4 1699.6 2168.83C1653.58 2185.21 1607.93 2195.78 1563.19 2204.42C1509.04 2214.99 1456.31 2222.73 1404.09 2233.56C1308.68 2253.54 1206.44 2286.42 1124.44 2359.78Z" stroke="url(#paint13_linear_471_135)" stroke-width="1.5" stroke-miterlimit="10" stroke-linecap="round" stroke-linejoin="round"/>
<path d="M1125.21 2368.03C1092.59 2396.91 1066.16 2431.98 1037.8 2464.86C980.68 2530.75 913.894 2589.28 836.148 2625.77C757.37 2662.39 666.344 2675.67 583.957 2647.3C461.214 2605.01 382.178 2480.08 369.93 2347.79C365.03 2296.09 369.672 2243.74 381.791 2193.46C400.229 2116.49 435.556 2041.96 478.619 1978.01C535.22 1893.95 609.356 1815.82 598.655 1715.12C591.177 1644.47 540.636 1583.74 515.365 1515.92C506.855 1492.97 501.182 1471.7 498.604 1451.33C486.484 1355.66 538.057 1292.1 593.627 1204.16C675.112 1075.23 739.578 926.317 840.918 812.083C929.494 712.289 1038.31 632.223 1157.96 613.141C1268.59 595.477 1376.11 632.094 1484.16 688.953C1498.6 696.56 1513.04 704.553 1527.22 712.934C1645.07 782.557 1740.09 869.973 1798.37 967.188C1854.45 1060.66 1886.04 1169.48 1916.86 1287.33C1928.72 1332.84 1940.19 1380.67 1950.76 1429.92C1967.65 1509.6 1981.19 1586.58 2004.01 1651.69C2020.13 1697.59 2041.4 1736.65 2049.27 1781.26C2063.06 1859.01 2032.89 1949.52 1971.39 2023.01C1952.7 2045.45 1931.17 2066.2 1907.7 2085.29C1854.19 2128.86 1790.5 2163.68 1725.39 2185.85C1677.69 2202.1 1630.11 2211.9 1583.44 2219.63C1526.96 2228.92 1471.78 2234.98 1417.11 2244.39C1317.19 2261.41 1209.79 2292.48 1125.21 2368.03Z" stroke="url(#paint14_linear_471_135)" stroke-width="1.4615" stroke-miterlimit="10" stroke-linecap="round" stroke-linejoin="round"/>
<path d="M1125.99 2376.28C1092.08 2406.32 1064.87 2442.94 1035.73 2477.37C977.07 2546.47 908.349 2608.1 827.767 2646.91C746.282 2685.85 651.646 2700.68 565.648 2672.18C438.134 2629.89 354.2 2501.48 340.533 2364.94C335.118 2311.43 339.759 2257.41 352.137 2205.45C371.219 2125.77 408.093 2048.8 453.993 1983.43C513.946 1897.3 593.626 1817.62 584.343 1713.06C577.896 1639.82 526.066 1576.78 500.666 1506.51C492.028 1482.66 486.484 1460.61 484.034 1439.72C472.43 1340.44 526.968 1276.11 584.988 1185.47C669.954 1052.8 734.291 898.337 837.436 778.817C927.302 674.769 1038.31 590.06 1161.96 566.595C1275.55 545.063 1389.01 577.683 1500.28 635.316C1515.23 643.051 1529.93 651.174 1544.5 659.813C1665.31 731.499 1759.82 826.393 1816.29 930.054C1870.96 1030.49 1899.58 1145.5 1929.1 1268.5C1940.45 1315.82 1951.8 1365.46 1962.5 1416.26C1980.03 1498.51 1995.63 1577.81 2022.19 1644.98C2040.89 1692.43 2065.38 1732.78 2075.83 1779.46C2094.14 1860.68 2065.9 1956.61 2004.01 2033.97C1985.19 2057.56 1963.27 2079.35 1939.29 2099.34C1884.62 2144.85 1818.87 2180.69 1751.44 2202.74C1701.93 2218.86 1652.67 2228.01 1603.94 2234.59C1545.14 2242.71 1487.38 2247.09 1430.39 2254.96C1325.83 2269.27 1213.27 2298.54 1125.99 2376.28Z" stroke="url(#paint15_linear_471_135)" stroke-width="1.4231" stroke-miterlimit="10" stroke-linecap="round" stroke-linejoin="round"/>
<path d="M1126.63 2384.54C1091.43 2415.61 1063.46 2453.9 1033.54 2489.87C973.332 2562.08 902.548 2626.93 819.129 2668.19C734.936 2709.45 636.69 2725.82 547.082 2697.33C414.798 2655.04 325.964 2523.01 310.879 2382.22C304.948 2327.03 309.461 2271.08 322.354 2217.44C342.081 2135.18 380.76 2055.89 429.239 1988.84C492.673 1900.66 577.897 1819.43 569.903 1711.13C564.359 1635.44 511.368 1569.82 485.84 1497.1C477.201 1472.34 471.657 1449.65 469.208 1427.99C457.99 1325.1 515.752 1259.99 576.092 1166.77C664.539 1030.24 728.748 870.36 833.698 745.554C924.853 637.251 1038.06 548.03 1165.83 520.052C1282.51 494.523 1401.77 523.404 1516.26 581.552C1531.61 589.417 1546.82 597.669 1561.65 606.565C1685.42 680.314 1779.54 782.686 1834.21 892.923C1887.46 1000.32 1912.99 1121.39 1941.22 1249.55C1952.05 1298.8 1963.14 1350.24 1974.23 1402.46C1992.28 1487.17 2010.07 1568.91 2040.24 1638.28C2061.52 1687.14 2089.11 1728.92 2102.13 1777.65C2124.82 1862.36 2098.65 1963.7 2036.38 2044.93C2017.42 2069.68 1995.12 2092.51 1970.62 2113.39C1914.79 2160.84 1846.97 2197.71 1777.22 2219.5C1726.04 2235.49 1674.85 2243.87 1624.18 2249.42C1563.07 2256.25 1502.86 2258.96 1443.42 2265.4C1334.47 2277.14 1216.63 2304.6 1126.63 2384.54Z" stroke="url(#paint16_linear_471_135)" stroke-width="1.3846" stroke-miterlimit="10" stroke-linecap="round" stroke-linejoin="round"/>
<path d="M1127.4 2392.79C1090.92 2424.89 1062.17 2464.86 1031.48 2502.38C969.592 2577.81 897.004 2645.75 810.748 2689.33C723.848 2733.04 621.992 2750.96 528.774 2722.34C391.59 2680.18 297.728 2544.54 281.353 2399.49C274.778 2342.63 279.419 2284.87 292.699 2229.43C313.071 2144.47 353.426 2062.85 404.741 1994.26C471.657 1904.14 562.296 1821.23 555.721 1709.06C551.079 1630.8 496.928 1562.85 471.141 1487.56C462.374 1461.9 456.83 1438.43 454.638 1416.26C443.937 1309.76 504.793 1243.88 567.453 1148.08C659.382 1007.67 723.332 842.382 830.217 712.289C922.661 599.732 1037.93 505.869 1169.82 473.507C1289.6 444.111 1414.67 468.995 1532.25 527.788C1547.98 535.653 1563.58 544.162 1578.8 553.187C1705.66 628.999 1799.14 738.72 1852 855.533C1903.83 969.895 1926.4 1097.02 1953.21 1230.47C1963.53 1281.65 1974.36 1334.77 1985.83 1388.67C2004.53 1475.95 2024.38 1560.15 2058.16 1631.45C2082.02 1681.86 2112.83 1724.92 2128.43 1775.72C2155.51 1863.91 2131.53 1970.54 2068.61 2055.76C2049.4 2081.68 2026.96 2105.66 2001.95 2127.32C1944.83 2176.7 1875.08 2214.6 1802.88 2236.14C1749.89 2251.99 1696.9 2259.6 1644.29 2264.11C1580.86 2269.66 1518.2 2270.82 1456.18 2275.85C1343.11 2285 1220.11 2310.79 1127.4 2392.79Z" stroke="url(#paint17_linear_471_135)" stroke-width="1.3462" stroke-miterlimit="10" stroke-linecap="round" stroke-linejoin="round"/>
<path d="M1128.05 2400.91C1090.14 2434.17 1060.75 2475.69 1029.16 2514.76C965.724 2593.28 891.072 2664.32 802.109 2710.35C712.63 2756.5 607.164 2775.84 510.336 2747.22C368.382 2705.19 269.62 2566.07 251.827 2416.64C244.736 2357.97 249.249 2298.54 263.044 2241.42C284.06 2153.88 326.092 2069.94 380.115 1999.8C450.64 1907.62 546.437 1823.16 541.409 1707.26C537.541 1626.41 482.487 1556.02 456.442 1478.27C447.546 1451.71 442.131 1427.47 440.068 1404.65C429.882 1294.54 493.833 1227.89 558.943 1129.38C654.353 985.107 718.174 814.401 826.864 679.023C920.597 562.21 1038.05 463.835 1174.08 426.961C1297.08 393.567 1427.82 414.583 1548.62 474.021C1564.87 482.015 1580.73 490.653 1596.33 499.936C1726.16 577.811 1819 695.01 1870.31 818.398C1920.72 939.723 1940.19 1073.04 1965.85 1211.51C1975.65 1264.63 1986.35 1319.56 1998.08 1374.87C2017.29 1464.73 2039.34 1551.25 2076.73 1624.74C2103.16 1676.7 2137.07 1721.05 2155.25 1773.91C2186.84 1865.71 2164.79 1977.63 2101.49 2066.72C2082.15 2093.79 2059.32 2118.81 2033.8 2141.37C1975.52 2192.68 1903.7 2231.62 1829.18 2253.02C1774.51 2268.75 1719.59 2275.59 1665.05 2279.2C1599.3 2283.58 1534.18 2282.94 1469.72 2286.55C1351.75 2292.86 1223.46 2316.85 1128.05 2400.91Z" stroke="url(#paint18_linear_471_135)" stroke-width="1.3077" stroke-miterlimit="10" stroke-linecap="round" stroke-linejoin="round"/>
<path d="M1128.82 2409.16C1089.63 2443.46 1059.46 2486.65 1027.1 2527.26C961.985 2609.01 885.528 2683.14 793.729 2731.49C701.413 2779.84 592.337 2800.86 491.899 2772.11C345.045 2730.2 241.384 2587.47 222.302 2433.92C214.695 2373.58 219.208 2312.33 233.39 2253.41C255.051 2163.16 298.888 2076.9 355.489 2005.22C429.496 1911.1 530.707 1824.97 526.968 1705.19C524.132 1621.77 467.917 1548.93 441.615 1468.86C432.719 1441.4 427.304 1416.39 425.241 1393.05C415.571 1279.33 482.487 1211.9 550.047 1110.82C648.809 962.674 712.63 786.553 823.125 645.888C918.148 524.95 1037.8 421.934 1177.95 380.546C1304.04 343.285 1440.58 360.433 1564.61 420.386C1581.25 428.38 1597.62 437.276 1613.48 446.817C1746.28 526.755 1838.59 651.303 1888.1 781.267C1936.97 909.554 1953.6 1048.93 1977.84 1192.69C1987.12 1247.61 1997.57 1304.34 2009.69 1361.2C2029.54 1453.52 2053.78 1542.48 2094.65 1618.16C2123.66 1671.67 2160.79 1717.31 2181.55 1772.24C2217.52 1867.52 2197.54 1984.85 2133.72 2077.81C2114.25 2106.17 2091.04 2132.09 2065 2155.55C2005.56 2208.93 1931.68 2248.64 1854.71 2269.92C1798.24 2285.52 1741.51 2291.58 1685.04 2294.15C1616.96 2297.25 1549.4 2295.06 1482.48 2297.12C1360.38 2300.73 1226.94 2322.91 1128.82 2409.16Z" stroke="url(#paint19_linear_471_135)" stroke-width="1.2692" stroke-miterlimit="10" stroke-linecap="round" stroke-linejoin="round"/>
<path d="M1129.6 2417.41C1089.11 2452.87 1058.17 2497.61 1025.03 2539.77C958.374 2624.74 879.855 2702.1 785.219 2752.77C690.196 2803.56 577.509 2826 473.461 2797.25C321.708 2755.34 213.148 2609.01 192.648 2451.19C184.525 2389.05 189.037 2326.13 203.607 2265.4C225.912 2172.57 271.425 2084 330.863 2010.63C408.351 1914.58 515.106 1826.78 512.657 1703.26C510.723 1617.39 453.348 1542.09 426.917 1459.45C417.892 1431.08 412.605 1405.3 410.671 1381.32C401.517 1264.12 471.527 1195.78 541.408 1092.12C643.651 940.111 707.344 758.575 819.644 612.624C916.085 487.431 1037.93 379.773 1181.94 334.002C1311.13 292.873 1453.34 306.024 1580.73 366.622C1597.75 374.745 1614.51 383.641 1630.88 393.569C1766.78 475.698 1858.45 607.596 1906.28 744.135C1953.73 879.384 1967.27 1024.82 1990.22 1173.86C1998.98 1230.72 2009.17 1289.26 2021.68 1347.54C2042.05 1442.43 2068.61 1533.71 2112.96 1611.46C2144.55 1666.38 2184.9 1713.45 2208.11 1770.43C2248.47 1869.19 2230.55 1991.94 2166.34 2088.77C2146.74 2118.29 2123.15 2145.37 2096.59 2169.61C2035.99 2224.92 1960.05 2265.66 1880.75 2286.81C1822.61 2302.28 1763.94 2307.69 1705.53 2309.11C1635.14 2310.92 1565.13 2307.05 1495.76 2307.69C1369.02 2308.6 1230.29 2328.97 1129.6 2417.41Z" stroke="url(#paint20_linear_471_135)" stroke-width="1.2308" stroke-miterlimit="10" stroke-linecap="round" stroke-linejoin="round"/>
<path d="M1130.24 2425.66C1088.47 2462.15 1056.75 2508.57 1022.84 2552.4C954.635 2640.47 874.182 2720.92 776.838 2773.91C679.108 2827.03 562.811 2851.01 455.153 2822.26C298.63 2780.36 185.041 2630.54 163.251 2468.47C154.613 2404.65 158.996 2339.8 173.952 2277.39C196.902 2181.98 244.22 2090.96 306.237 2016.05C387.206 1917.93 499.377 1828.58 498.345 1701.33C497.443 1612.88 438.779 1535.13 412.219 1450.04C403.193 1420.77 397.907 1394.21 396.102 1369.71C387.335 1248.9 460.568 1179.92 532.77 1073.43C638.494 917.548 702.058 730.596 816.162 579.488C913.893 450.04 1037.93 337.87 1186.07 287.586C1318.48 242.589 1466.37 251.743 1596.97 312.986C1614.51 321.237 1631.66 330.263 1648.29 340.448C1787.15 424.641 1878.18 563.887 1924.33 707.002C1970.23 849.214 1981.19 1000.71 2002.59 1154.91C2010.97 1213.7 2020.77 1273.92 2033.67 1333.74C2054.68 1431.21 2083.31 1524.82 2131.4 1604.76C2165.56 1661.23 2209.01 1709.58 2234.93 1768.63C2279.8 1871 2263.94 1999.03 2199.09 2099.72C2179.36 2130.41 2155.38 2158.52 2128.3 2183.53C2066.54 2240.78 1988.54 2282.55 1906.8 2303.44C1846.84 2318.78 1786.38 2323.42 1726.04 2323.81C1653.32 2324.45 1580.86 2318.78 1508.91 2318.01C1377.66 2316.46 1233.77 2335.15 1130.24 2425.66Z" stroke="url(#paint21_linear_471_135)" stroke-width="1.1923" stroke-miterlimit="10" stroke-linecap="round" stroke-linejoin="round"/>
<path d="M1131.01 2433.92C1087.82 2471.44 1055.46 2519.53 1020.65 2564.91C950.768 2656.07 868.38 2739.62 768.329 2795.19C667.891 2850.63 547.984 2875.9 436.845 2847.4C275.422 2805.11 156.934 2651.94 133.726 2485.62C124.572 2419.99 128.955 2353.47 144.298 2289.39C167.893 2191.27 216.887 2098.05 281.611 2021.47C366.061 1921.41 483.776 1830.26 484.034 1699.26C484.034 1608.24 424.209 1528.17 397.52 1440.63C388.366 1410.46 383.08 1383.25 381.533 1357.98C373.281 1233.56 449.609 1163.81 524.132 1054.73C633.337 895.116 697.158 702.879 812.681 546.226C911.959 412.653 1037.93 295.84 1190.07 241.044C1325.57 192.179 1479.26 197.465 1613.09 259.224C1631.01 267.475 1648.55 276.758 1665.57 287.073C1807.39 373.328 1897.77 519.924 1942.38 669.743C1986.74 818.788 1994.73 976.601 2014.84 1135.96C2022.71 1196.69 2032.38 1258.7 2045.53 1319.95C2067.06 1420 2097.88 1515.92 2149.58 1598.05C2186.32 1656.07 2233 1705.84 2261.36 1766.82C2310.61 1872.68 2296.82 2006.12 2231.58 2110.69C2211.72 2142.53 2187.35 2171.67 2159.76 2197.59C2096.84 2256.77 2016.65 2299.57 1932.71 2320.2C1871.08 2335.41 1808.81 2339.28 1746.54 2338.77C1671.5 2338.12 1596.59 2330.9 1522.19 2328.58C1386.3 2324.33 1237.25 2341.22 1131.01 2433.92Z" stroke="url(#paint22_linear_471_135)" stroke-width="1.1538" stroke-miterlimit="10" stroke-linecap="round" stroke-linejoin="round"/>
<path d="M1131.66 2442.17C1087.18 2480.85 1054.04 2530.49 1018.46 2577.42C947.028 2671.8 862.706 2758.44 759.818 2816.33C656.673 2874.22 533.156 2901.04 418.407 2872.29C252.213 2830.26 128.825 2673.47 104.199 2503.03C94.4007 2435.72 98.7843 2367.39 114.643 2301.51C138.882 2200.81 189.552 2105.14 257.113 2027.01C345.173 1924.9 468.303 1832.19 469.85 1697.46C470.753 1603.86 409.768 1521.34 382.821 1431.34C373.538 1400.27 368.381 1372.29 366.834 1346.51C359.098 1218.48 438.391 1147.95 515.363 1036.3C628.05 872.811 691.613 675.029 809.07 513.22C909.637 375.391 1037.92 254.066 1194.06 194.629C1332.79 141.895 1492.15 143.185 1629.21 205.588C1647.51 213.968 1665.44 223.38 1682.84 233.953C1827.76 322.271 1917.37 476.216 1960.43 632.611C2003.24 788.618 2008.27 952.491 2027.09 1117.01C2034.44 1179.54 2043.85 1243.36 2057.39 1306.15C2079.57 1408.65 2112.44 1507.16 2167.76 1591.22C2206.95 1650.66 2256.85 1701.84 2287.92 1765.02C2341.56 1874.48 2329.82 2013.21 2264.2 2121.65C2244.21 2154.65 2219.46 2184.82 2191.35 2211.64C2127.27 2272.75 2045.01 2316.59 1958.76 2337.09C1895.32 2352.18 1831.24 2355.27 1767.03 2353.72C1689.68 2351.79 1612.19 2342.89 1535.47 2339.15C1394.81 2332.32 1240.61 2347.28 1131.66 2442.17Z" stroke="url(#paint23_linear_471_135)" stroke-width="1.1154" stroke-miterlimit="10" stroke-linecap="round" stroke-linejoin="round"/>
<path d="M1132.43 2450.42C1086.66 2490.13 1052.75 2541.45 1016.4 2589.93C943.291 2687.4 857.035 2777.27 751.311 2837.35C645.458 2897.56 518.331 2925.92 399.971 2897.17C228.879 2855.27 100.591 2694.88 74.6761 2520.17C64.3615 2451.2 68.7452 2381.06 84.9906 2313.37C109.874 2209.96 162.35 2112.11 232.489 2032.43C324.03 1928.38 452.576 1834 455.412 1695.4C457.346 1599.34 395.201 1514.38 367.996 1421.8C358.713 1389.83 353.556 1361.08 352.138 1334.65C345.175 1203.01 427.305 1131.71 506.598 1017.34C622.766 849.991 686.2 646.794 805.462 479.698C907.319 337.615 1037.8 211.777 1198.06 147.827C1340.01 91.2258 1505.05 88.5184 1645.33 151.566C1664.15 159.947 1682.46 169.616 1700.12 180.447C1848.01 270.828 1936.97 431.993 1978.36 595.221C2019.61 758.062 2021.81 928.123 2039.34 1097.93C2046.17 1162.39 2055.33 1227.89 2069.25 1292.36C2091.95 1397.44 2127.01 1498.26 2185.94 1584.52C2227.71 1645.5 2280.7 1697.98 2314.35 1763.22C2372.24 1876.29 2362.7 2020.31 2296.56 2132.61C2276.45 2166.9 2251.43 2198.1 2222.68 2225.69C2157.31 2288.74 2073.12 2333.61 1984.42 2353.85C1919.31 2368.81 1853.29 2371.26 1787.15 2368.55C1707.47 2365.46 1627.53 2354.88 1548.37 2349.6C1403.45 2340.19 1244.09 2353.47 1132.43 2450.42Z" stroke="url(#paint24_linear_471_135)" stroke-width="1.0769" stroke-miterlimit="10" stroke-linecap="round" stroke-linejoin="round"/>
<path d="M1133.21 2458.54C1086.15 2499.41 1051.46 2552.28 1014.33 2602.3C939.55 2703.13 851.361 2796.09 742.929 2858.62C634.368 2921.15 503.502 2951.06 381.533 2922.18C205.669 2880.41 72.4827 2716.41 45.0201 2537.32C34.1898 2466.54 38.5735 2394.59 55.2057 2325.36C80.7343 2219.37 134.886 2119.06 207.732 2037.84C302.755 1931.73 436.844 1835.8 440.97 1693.46C443.807 1594.83 380.501 1507.41 353.167 1412.39C343.755 1379.51 338.727 1349.98 337.438 1323.04C330.862 1187.79 416.215 1115.72 497.958 998.774C617.478 827.553 680.784 618.941 801.98 446.559C905.125 300.221 1038.05 170.128 1202.06 101.407C1347.23 41.0673 1517.94 34.3629 1661.44 97.9263C1680.65 106.436 1699.35 116.235 1717.4 127.323C1868.38 219.767 1956.31 388.41 1996.41 558.214C2035.73 728.017 2035.34 904.267 2051.59 1079.1C2057.78 1145.5 2066.8 1212.8 2081.11 1278.69C2104.45 1386.34 2141.58 1489.49 2204.11 1577.94C2248.47 1640.47 2304.68 1694.23 2340.91 1761.54C2403.31 1878.09 2395.71 2027.52 2329.18 2143.69C2308.81 2179.15 2283.54 2211.38 2254.27 2239.87C2187.74 2304.85 2101.48 2350.75 2010.46 2370.87C1943.54 2385.7 1875.73 2387.37 1807.65 2383.63C1725.65 2379.25 1643.26 2367 1561.65 2360.42C1412.09 2348.05 1247.44 2359.52 1133.21 2458.54Z" stroke="url(#paint25_linear_471_135)" stroke-width="1.0385" stroke-miterlimit="10" stroke-linecap="round" stroke-linejoin="round"/>
<path d="M798.499 413.297C902.934 262.575 1038.05 127.841 1206.18 54.866C1374.31 -18.1095 1578.54 -21.8487 1734.8 74.0767C1888.75 168.584 1976.29 344.447 2014.46 520.955C2052.62 697.463 2048.88 880.03 2063.97 1060.15C2079.05 1240.14 2115.8 1425.41 2222.42 1571.11C2269.35 1635.18 2328.79 1690.24 2367.47 1759.6C2434.39 1879.64 2428.84 2034.49 2361.67 2154.52C2294.63 2274.56 2170.85 2358.88 2036.37 2387.5C1885.01 2419.74 1728.74 2385.57 1574.67 2370.74C1420.6 2355.91 1250.79 2365.58 1133.85 2466.8C1085.37 2508.7 1050.05 2563.24 1012.14 2614.81C935.941 2718.6 845.688 2814.78 734.42 2879.64C623.152 2944.49 488.676 2976.21 363.225 2947.2C182.462 2905.55 44.3761 2737.94 15.6242 2554.6C-13.1276 2371.26 58.3007 2180.31 183.236 2043.25C281.74 1935.21 421.244 1837.61 426.788 1691.53C430.656 1590.32 366.061 1500.58 338.599 1403.11C281.353 1199.78 388.495 1123.58 489.32 980.21C612.321 805.121 675.498 590.965 798.499 413.297Z" stroke="white" stroke-miterlimit="10" stroke-linecap="round" stroke-linejoin="round"/>
<path d="M1138.23 2484.2C1085.89 2525.98 1043.86 2573.55 1003.63 2620.23C922.918 2713.96 834.858 2803.18 723.589 2860.94C612.321 2918.7 477.974 2944.62 351.105 2915.09C174.597 2874.22 39.8632 2712.67 8.79062 2535.52C-22.4109 2357.2 42.4418 2169.61 161.575 2032.68C255.953 1924.25 390.429 1825.1 399.712 1680.96C406.288 1579.36 351.234 1490.39 328.155 1394.08C280.45 1195.01 384.627 1118.04 483.26 975.182C601.233 804.09 663.249 596.896 780.835 423.354C881.789 274.308 1011.49 139.703 1174.85 65.3097C1338.21 -9.08403 1537.28 -15.7884 1692 73.8193C1845.55 162.653 1937.61 332.715 1979.13 506.902C2020.64 681.089 2019.1 863.527 2033.15 1043.13C2047.2 1221.31 2080.86 1405.17 2186.45 1549.57C2233.64 1614.04 2294.63 1668.19 2334.59 1736.91C2404.99 1856.82 2397.9 2009.86 2334.08 2131.57C2269.61 2254.32 2154.09 2343.8 2024.9 2378.09C1879.98 2416.51 1728.61 2389.44 1577.38 2380.8C1426.14 2372.29 1258.66 2387.89 1138.23 2484.2Z" stroke="white" stroke-miterlimit="10" stroke-linecap="round" stroke-linejoin="round"/>
<defs>
<linearGradient id="paint0_linear_471_135" x1="5450.81" y1="-2590.73" x2="3568.97" y2="-729.523" gradientUnits="userSpaceOnUse">
<stop offset="0.00067472" stop-color="#77C0C6"/>
<stop offset="1" stop-color="#A7B6E1"/>
</linearGradient>
<linearGradient id="paint1_linear_471_135" x1="5759.11" y1="-2644.78" x2="3851.34" y2="-650.499" gradientUnits="userSpaceOnUse">
<stop offset="0.00067472" stop-color="#7CC2C8"/>
<stop offset="1" stop-color="#AAB9E2"/>
</linearGradient>
<linearGradient id="paint2_linear_471_135" x1="6114.37" y1="-2686.06" x2="4185.88" y2="-552.767" gradientUnits="userSpaceOnUse">
<stop offset="0.00067472" stop-color="#81C5CA"/>
<stop offset="1" stop-color="#AEBCE3"/>
</linearGradient>
<linearGradient id="paint3_linear_471_135" x1="6535.71" y1="-2712.47" x2="4591.58" y2="-432.94" gradientUnits="userSpaceOnUse">
<stop offset="0.00067472" stop-color="#87C7CD"/>
<stop offset="1" stop-color="#B1BEE4"/>
</linearGradient>
<linearGradient id="paint4_linear_471_135" x1="7051.54" y1="-2714.84" x2="5095.71" y2="-280.455" gradientUnits="userSpaceOnUse">
<stop offset="0.00067472" stop-color="#8CCACF"/>
<stop offset="1" stop-color="#B5C1E6"/>
</linearGradient>
<linearGradient id="paint5_linear_471_135" x1="7708.07" y1="-2676.56" x2="5744.37" y2="-77.2079" gradientUnits="userSpaceOnUse">
<stop offset="0.00067472" stop-color="#91CCD1"/>
<stop offset="1" stop-color="#B8C4E7"/>
</linearGradient>
<linearGradient id="paint6_linear_471_135" x1="8556.74" y1="-2582.54" x2="6589.98" y2="192.634" gradientUnits="userSpaceOnUse">
<stop offset="0.00067472" stop-color="#96CFD3"/>
<stop offset="1" stop-color="#BBC7E8"/>
</linearGradient>
<linearGradient id="paint7_linear_471_135" x1="9687.32" y1="-2394.54" x2="7722.01" y2="567.43" gradientUnits="userSpaceOnUse">
<stop offset="0.00067472" stop-color="#9CD1D5"/>
<stop offset="1" stop-color="#BFCAE9"/>
</linearGradient>
<linearGradient id="paint8_linear_471_135" x1="11264.8" y1="-2047.77" x2="9307.09" y2="1112.28" gradientUnits="userSpaceOnUse">
<stop offset="0.00067472" stop-color="#A1D3D8"/>
<stop offset="1" stop-color="#C2CCEA"/>
</linearGradient>
<linearGradient id="paint9_linear_471_135" x1="13648.5" y1="-1409.01" x2="11701" y2="1967" gradientUnits="userSpaceOnUse">
<stop offset="0.00067472" stop-color="#A6D6DA"/>
<stop offset="1" stop-color="#C5CFEB"/>
</linearGradient>
<linearGradient id="paint10_linear_471_135" x1="17655.1" y1="-154.664" x2="15719.8" y2="3460.62" gradientUnits="userSpaceOnUse">
<stop offset="0.00067472" stop-color="#ABD8DC"/>
<stop offset="1" stop-color="#C9D2ED"/>
</linearGradient>
<linearGradient id="paint11_linear_471_135" x1="25533" y1="2714.42" x2="23624.3" y2="6570.42" gradientUnits="userSpaceOnUse">
<stop offset="0.00067472" stop-color="#B1DBDE"/>
<stop offset="1" stop-color="#CCD5EE"/>
</linearGradient>
<linearGradient id="paint12_linear_471_135" x1="48869.9" y1="12038.7" x2="47005.2" y2="16131.6" gradientUnits="userSpaceOnUse">
<stop offset="0.00067472" stop-color="#B6DDE0"/>
<stop offset="1" stop-color="#D0D8EF"/>
</linearGradient>
<linearGradient id="paint13_linear_471_135" x1="-1366.77" y1="1056.44" x2="-1366.78" y2="1056.46" gradientUnits="userSpaceOnUse">
<stop stop-color="#D3DAF0"/>
</linearGradient>
<linearGradient id="paint14_linear_471_135" x1="45551.4" y1="30692.4" x2="47287" y2="26127.2" gradientUnits="userSpaceOnUse">
<stop offset="0.00067472" stop-color="#C0E2E5"/>
<stop offset="1" stop-color="#D6DDF1"/>
</linearGradient>
<linearGradient id="paint15_linear_471_135" x1="22255.9" y1="21363.6" x2="23904.3" y2="16571.7" gradientUnits="userSpaceOnUse">
<stop offset="0.00067472" stop-color="#C5E4E7"/>
<stop offset="1" stop-color="#DAE0F2"/>
</linearGradient>
<linearGradient id="paint16_linear_471_135" x1="14396.3" y1="18479.9" x2="15944.1" y2="13466.9" gradientUnits="userSpaceOnUse">
<stop offset="0.00067472" stop-color="#CBE7E9"/>
<stop offset="1" stop-color="#DDE3F3"/>
</linearGradient>
<linearGradient id="paint17_linear_471_135" x1="10389.4" y1="17207" x2="11823.5" y2="11979" gradientUnits="userSpaceOnUse">
<stop offset="0.00067472" stop-color="#D0E9EB"/>
<stop offset="1" stop-color="#E1E6F5"/>
</linearGradient>
<linearGradient id="paint18_linear_471_135" x1="7929.22" y1="16583" x2="9237.77" y2="11148.5" gradientUnits="userSpaceOnUse">
<stop offset="0.00067472" stop-color="#D5ECED"/>
<stop offset="1" stop-color="#E4E9F6"/>
</linearGradient>
<linearGradient id="paint19_linear_471_135" x1="6235.96" y1="16278.6" x2="7407.3" y2="10647.7" gradientUnits="userSpaceOnUse">
<stop offset="0.00067472" stop-color="#DAEEF0"/>
<stop offset="1" stop-color="#E7EBF7"/>
</linearGradient>
<linearGradient id="paint20_linear_471_135" x1="4998.52" y1="16162.9" x2="6023.15" y2="10346.6" gradientUnits="userSpaceOnUse">
<stop offset="0.00067472" stop-color="#E0F0F2"/>
<stop offset="1" stop-color="#EBEEF8"/>
</linearGradient>
<linearGradient id="paint21_linear_471_135" x1="4057.41" y1="16166.4" x2="4926.03" y2="10175" gradientUnits="userSpaceOnUse">
<stop offset="0.00067472" stop-color="#E5F3F4"/>
<stop offset="1" stop-color="#EEF1F9"/>
</linearGradient>
<linearGradient id="paint22_linear_471_135" x1="3296.99" y1="16246.2" x2="4002.56" y2="10091.4" gradientUnits="userSpaceOnUse">
<stop offset="0.00067472" stop-color="#EAF5F6"/>
<stop offset="1" stop-color="#F1F4FA"/>
</linearGradient>
<linearGradient id="paint23_linear_471_135" x1="2660.38" y1="16380.1" x2="3196.17" y2="10073.1" gradientUnits="userSpaceOnUse">
<stop offset="0.00067472" stop-color="#EFF8F8"/>
<stop offset="1" stop-color="#F5F7FC"/>
</linearGradient>
<linearGradient id="paint24_linear_471_135" x1="2115.11" y1="16554.1" x2="2475.97" y2="10106.3" gradientUnits="userSpaceOnUse">
<stop offset="0.00067472" stop-color="#F5FAFB"/>
<stop offset="1" stop-color="#F8F9FD"/>
</linearGradient>
<linearGradient id="paint25_linear_471_135" x1="1637.54" y1="16758.2" x2="1819.45" y2="10181.5" gradientUnits="userSpaceOnUse">
<stop offset="0.00067472" stop-color="#FAFDFD"/>
<stop offset="1" stop-color="#FCFCFE"/>
</linearGradient>
</defs>
</svg>
